<svg width="24" height="24" viewBox="0 0 24 24" fill="none" xmlns="http://www.w3.org/2000/svg">
<path opacity="0.5" d="M15 15H9C9 15.5523 8.55228 16 8 16C7.44772 16 7 15.5523 7 15H5C4.44772 15 4 15.4477 4 16V18C4 19.1046 4.89543 20 6 20H18C19.1046 20 20 19.1046 20 18V16C20 15.4477 19.5523 15 19 15H17C17 15.5523 16.5523 16 16 16C15.4477 16 15 15.5523 15 15Z" fill="#06AB78"/>
<path d="M9 14H15C15 13.4477 15.4477 13 16 13C16.5523 13 17 13.4477 17 14H19C19.5523 14 20 13.5523 20 13V11C20 9.89543 19.1046 9 18 9H6C4.89543 9 4 9.89543 4 11V13C4 13.5523 4.44772 14 5 14H7C7 13.4477 7.44772 13 8 13C8.55228 13 9 13.4477 9 14Z" fill="#06AB78"/>
<path opacity="0.5" fill-rule="evenodd" clip-rule="evenodd" d="M9 7C8.44772 7 8 7.44772 8 8V9H6V8C6 6.34315 7.34315 5 9 5H15C16.6569 5 18 6.34315 18 8V9H16V8C16 7.44772 15.5523 7 15 7H9Z" fill="#06AB78"/>
</svg>
