<svg width="24" height="24" viewBox="0 0 24 24" fill="none" xmlns="http://www.w3.org/2000/svg">
<rect opacity="0.5" x="3" y="3" width="18" height="18" rx="4" fill="#00BD82"/>
<path d="M7 2C7 1.44772 7.44772 1 8 1C8.55228 1 9 1.44772 9 2V4C9 4.55228 8.55228 5 8 5C7.44772 5 7 4.55228 7 4V2Z" fill="#00BD82"/>
<path d="M7 8C7 7.44772 7.44772 7 8 7C8.55228 7 9 7.44772 9 8C9 8.55228 8.55228 9 8 9C7.44772 9 7 8.55228 7 8Z" fill="#00BD82"/>
<path d="M12 7C11.4477 7 11 7.44772 11 8C11 8.55228 11.4477 9 12 9C12.5523 9 13 8.55228 13 8C13 7.44772 12.5523 7 12 7Z" fill="#00BD82"/>
<path d="M15 8C15 7.44772 15.4477 7 16 7C16.5523 7 17 7.44772 17 8C17 8.55228 16.5523 9 16 9C15.4477 9 15 8.55228 15 8Z" fill="#00BD82"/>
<path d="M8 11C7.44772 11 7 11.4477 7 12C7 12.5523 7.44772 13 8 13C8.55228 13 9 12.5523 9 12C9 11.4477 8.55228 11 8 11Z" fill="#00BD82"/>
<path d="M7 16C7 15.4477 7.44772 15 8 15C8.55228 15 9 15.4477 9 16C9 16.5523 8.55228 17 8 17C7.44772 17 7 16.5523 7 16Z" fill="#00BD82"/>
<path d="M12 11C11.4477 11 11 11.4477 11 12C11 12.5523 11.4477 13 12 13C12.5523 13 13 12.5523 13 12C13 11.4477 12.5523 11 12 11Z" fill="#00BD82"/>
<path d="M11 16C11 15.4477 11.4477 15 12 15C12.5523 15 13 15.4477 13 16C13 16.5523 12.5523 17 12 17C11.4477 17 11 16.5523 11 16Z" fill="#00BD82"/>
<path d="M16 11C15.4477 11 15 11.4477 15 12C15 12.5523 15.4477 13 16 13C16.5523 13 17 12.5523 17 12C17 11.4477 16.5523 11 16 11Z" fill="#00BD82"/>
<path d="M15 16C15 15.4477 15.4477 15 16 15C16.5523 15 17 15.4477 17 16C17 16.5523 16.5523 17 16 17C15.4477 17 15 16.5523 15 16Z" fill="#00BD82"/>
<path d="M16 1C15.4477 1 15 1.44772 15 2V4C15 4.55228 15.4477 5 16 5C16.5523 5 17 4.55228 17 4V2C17 1.44772 16.5523 1 16 1Z" fill="#00BD82"/>
</svg>
