<svg width="24" height="24" viewBox="0 0 24 24" fill="none" xmlns="http://www.w3.org/2000/svg">
<path d="M19.4891 16.4148C20.2221 17.1479 20.1714 18.3739 19.2905 18.9206C15.7416 21.1236 13.1272 19.9544 8.5864 15.4132C4.04556 10.872 2.87652 8.25736 5.07927 4.70814C5.62598 3.82726 6.85184 3.77647 7.58488 4.50958L9.82405 6.74894C10.5076 7.43253 10.45 8.50296 9.92657 9.31571C9.14692 10.5263 9.5253 11.4012 11.0617 12.9377C12.5981 14.4742 13.4729 14.8526 14.6834 14.0729C15.4961 13.5495 16.5664 13.4919 17.2499 14.1755L19.4891 16.4148Z" fill="#00BD82"/>
<path opacity="0.5" d="M15 4C14.4477 4 14 4.44772 14 5C14 5.55228 14.4477 6 15 6H16.6568L14.3639 8.29286C13.9734 8.68339 13.9734 9.31655 14.3639 9.70708C14.7545 10.0976 15.3876 10.0976 15.7782 9.70708L18 7.48523V9C18 9.55228 18.4477 10 19 10C19.5523 10 20 9.55228 20 9V5C20 4.44772 19.5523 4 19 4H15Z" fill="#00BD82"/>
</svg>
