<svg width="24" height="24" viewBox="0 0 24 24" fill="none" xmlns="http://www.w3.org/2000/svg">
<path fill-rule="evenodd" clip-rule="evenodd" d="M3.43059 11.293C3.04006 11.6835 3.04006 12.3166 3.43059 12.7072L6.75829 16.0349C7.14881 16.4254 7.78198 16.4254 8.1725 16.0349C8.56303 15.6443 8.56303 15.0112 8.1725 14.6207L5.55191 12.0001L8.1725 9.37947C8.56303 8.98895 8.56303 8.35578 8.1725 7.96526C7.78198 7.57473 7.14881 7.57473 6.75829 7.96526L3.43059 11.293ZM17.2414 16.0349L20.5691 12.7072C20.9596 12.3166 20.9596 11.6835 20.5691 11.293L17.2414 7.96526C16.8509 7.57473 16.2177 7.57473 15.8272 7.96526C15.4367 8.35578 15.4367 8.98895 15.8272 9.37947L18.4478 12.0001L15.8272 14.6207C15.4367 15.0112 15.4367 15.6443 15.8272 16.0349C16.2177 16.4254 16.8509 16.4254 17.2414 16.0349Z" fill="#00BD82"/>
<path opacity="0.5" fill-rule="evenodd" clip-rule="evenodd" d="M13.8547 5.86626C14.3811 6.03341 14.6723 6.59563 14.5052 7.12201L11.2151 17.4832C11.0479 18.0096 10.4857 18.3008 9.95934 18.1337C9.43295 17.9665 9.14174 17.4043 9.30889 16.8779L12.599 6.51671C12.7661 5.99033 13.3284 5.69911 13.8547 5.86626Z" fill="#00BD82"/>
</svg>
