<svg width="24" height="24" viewBox="0 0 24 24" fill="none" xmlns="http://www.w3.org/2000/svg">
<path opacity="0.5" d="M3 10C3 8.89543 3.89543 8 5 8H19C20.1046 8 21 8.89543 21 10V18C21 19.1046 20.1046 20 19 20H5C3.89543 20 3 19.1046 3 18V10Z" fill="#00BD82"/>
<path d="M5 4C3.89543 4 3 4.89543 3 6V10C3 8.89543 3.89543 8 5 8H19C20.1046 8 21 8.89543 21 10V8C21 6.89543 20.1046 6 19 6H12.6056C12.2107 6 11.8247 5.88312 11.4962 5.6641L9.50385 4.3359C9.17531 4.11688 8.7893 4 8.39445 4H5Z" fill="#00BD82"/>
</svg>
