<svg width="24" height="24" viewBox="0 0 24 24" fill="none" xmlns="http://www.w3.org/2000/svg">
<path opacity="0.5" d="M20.3324 9.66519H19.6306C19.3497 9.66519 19.0997 9.49235 18.9966 9.23125C18.9676 9.15718 18.9374 9.08434 18.9059 9.0115C18.7942 8.75411 18.8485 8.45473 19.0472 8.25597L19.5435 7.75969C20.1947 7.10848 20.1947 6.05234 19.5435 5.40051L18.6003 4.45732C17.9491 3.80611 16.893 3.80611 16.2411 4.45732L15.7449 4.95361C15.5461 5.15236 15.2474 5.20668 14.9893 5.09496C14.9165 5.06348 14.8437 5.03323 14.7696 5.00422C14.5085 4.90114 14.3357 4.65115 14.3357 4.37029V3.66846C14.3357 2.7475 13.5888 2.00061 12.6678 2.00061H11.3339C10.4129 2.00061 9.66604 2.7475 9.66604 3.66846V4.37029C9.66604 4.65115 9.49321 4.90114 9.23211 5.00422C9.15803 5.03323 9.0852 5.06348 9.01236 5.09496C8.75496 5.20668 8.45559 5.15236 8.25683 4.95361L7.76055 4.45732C7.10933 3.80611 6.05319 3.80611 5.40136 4.45732L4.45818 5.40051C3.80696 6.05172 3.80696 7.10786 4.45818 7.75969L4.95446 8.25597C5.15322 8.45473 5.20754 8.75349 5.09581 9.0115C5.06433 9.08434 5.03409 9.15718 5.00508 9.23125C4.90199 9.49235 4.652 9.66519 4.37114 9.66519H3.66931C2.74836 9.66519 2.00146 10.4121 2.00146 11.333V12.6669C2.00146 13.5879 2.74836 14.3348 3.66931 14.3348H4.37114C4.652 14.3348 4.90199 14.5076 5.00508 14.7687C5.03409 14.8428 5.06433 14.9156 5.09581 14.9885C5.20754 15.2459 5.15322 15.5453 4.95446 15.744L4.45818 16.2403C3.80696 16.8915 3.80696 17.9476 4.45818 18.5995L5.40136 19.5427C6.05257 20.1939 7.10871 20.1939 7.76055 19.5427L8.25683 19.0464C8.45559 18.8476 8.75434 18.7933 9.01236 18.905C9.0852 18.9365 9.15803 18.9668 9.23211 18.9958C9.49321 19.0988 9.66604 19.3488 9.66604 19.6297V20.3315C9.66604 21.2525 10.4129 21.9994 11.3339 21.9994H12.6678C13.5888 21.9994 14.3357 21.2525 14.3357 20.3315V19.6297C14.3357 19.3488 14.5085 19.0988 14.7696 18.9958C14.8437 18.9668 14.9165 18.9365 14.9893 18.905C15.2467 18.7933 15.5461 18.8476 15.7449 19.0464L16.2411 19.5427C16.8924 20.1939 17.9485 20.1939 18.6003 19.5427L19.5435 18.5995C20.1947 17.9483 20.1947 16.8921 19.5435 16.2403L19.0472 15.744C18.8485 15.5453 18.7942 15.2465 18.9059 14.9885C18.9374 14.9156 18.9676 14.8428 18.9966 14.7687C19.0997 14.5076 19.3497 14.3348 19.6306 14.3348H20.3324C21.2533 14.3348 22.0002 13.5879 22.0002 12.6669V11.333C22.0002 10.4121 21.2533 9.66519 20.3324 9.66519Z" fill="#00BD82"/>
<circle cx="12" cy="12" r="3.75" fill="#00BD82"/>
</svg>
