<svg width="24" height="24" viewBox="0 0 24 24" fill="none" xmlns="http://www.w3.org/2000/svg">
<path opacity="0.5" fill-rule="evenodd" clip-rule="evenodd" d="M11.999 2C11.7374 2 11.4863 2.10248 11.2994 2.28548C8.85661 4.67727 7.36429 7.746 7.05668 11H3C2.44772 11 2 11.4477 2 12C2 12.5523 2.44772 13 3 13H7.05689C7.365 16.2468 8.85737 19.3147 11.2981 21.7132C11.4851 21.897 11.7368 22 11.999 22C12.2619 22 12.5152 21.8965 12.7023 21.7118C15.1336 19.313 16.6242 16.2456 16.9396 13H21C21.5523 13 22 12.5523 22 12C22 11.4477 21.5523 11 21 11H16.9408C16.6259 7.74722 15.1354 4.67894 12.702 2.28687C12.515 2.10302 12.2633 2 12.001 2H11.999ZM14.9298 11C14.6589 8.62291 13.6482 6.35 11.9986 4.45514C10.3425 6.35037 9.332 8.62336 9.06723 11H14.9298ZM9.06754 13C9.33267 15.3693 10.3425 17.6412 11.9981 19.5417C13.6472 17.6416 14.6572 15.3697 14.9285 13H9.06754Z" fill="#00BD82"/>
<path fill-rule="evenodd" clip-rule="evenodd" d="M4.92893 4.92893C6.8043 3.05357 9.34784 2 12 2C14.6522 2 17.1957 3.05357 19.0711 4.92893C20.9464 6.8043 22 9.34784 22 12C22 14.6522 20.9464 17.1957 19.0711 19.0711C17.1957 20.9464 14.6522 22 12 22C9.34784 22 6.8043 20.9464 4.92893 19.0711C3.05357 17.1957 2 14.6522 2 12C2 9.34784 3.05357 6.8043 4.92893 4.92893ZM12 4C9.87827 4 7.84344 4.84285 6.34315 6.34315C4.84285 7.84344 4 9.87827 4 12C4 14.1217 4.84285 16.1566 6.34315 17.6569C7.84344 19.1571 9.87827 20 12 20C14.1217 20 16.1566 19.1571 17.6569 17.6569C19.1571 16.1566 20 14.1217 20 12C20 9.87827 19.1571 7.84344 17.6569 6.34315C16.1566 4.84285 14.1217 4 12 4Z" fill="#00BD82"/>
</svg>
