<svg width="24" height="24" viewBox="0 0 24 24" fill="none" xmlns="http://www.w3.org/2000/svg">
<path opacity="0.5" d="M18.5627 16.8033C18.2166 18.5623 16.9184 20.0034 15.1947 20.3982C15.0788 20.4274 15.0066 20.4523 14.9417 20.476L14.9113 20.4873C14.8439 20.5125 14.7282 20.5557 14.6031 20.5888C14.479 20.6216 14.3474 20.6451 14.1959 20.6617C13.9207 20.9862 13.5101 21.1921 13.0513 21.1921H12.0513C11.2228 21.1921 10.5513 20.5206 10.5513 19.6921C10.5513 18.8637 11.2228 18.1921 12.0513 18.1921H13.0513C13.4723 18.1921 13.8529 18.3656 14.1253 18.645C14.1374 18.6408 14.1533 18.635 14.179 18.6255L14.2552 18.5975C14.3692 18.5558 14.5134 18.5067 14.7212 18.455L14.7316 18.4525L14.742 18.4501C15.6335 18.2486 16.395 17.471 16.6014 16.4118L16.6032 16.4026L16.6051 16.3935C16.7327 15.7984 16.8339 14.2985 16.8339 12.6267H18.8339C18.8339 14.2953 18.7377 15.9776 18.5627 16.8033Z" fill="#00BD82"/>
<path d="M7.16602 10.2538C7.16611 10.2593 7.16615 10.2649 7.16615 10.2704V15.7686C7.16615 16.3209 6.71843 16.7686 6.16615 16.7686H5.01832C3.38155 16.7686 2.05469 15.4417 2.05469 13.8049V12.234C2.05469 10.5973 3.38155 9.27039 5.01832 9.27039H5.17594C5.36883 5.66879 8.35031 2.8078 12 2.8078C15.6497 2.8078 18.6312 5.66879 18.8241 9.27039H18.9817C20.6184 9.27039 21.9453 10.5973 21.9453 12.234V13.8049C21.9453 15.4417 20.6184 16.7686 18.9817 16.7686H17.8338C17.2816 16.7686 16.8338 16.3209 16.8338 15.7686V10.2704C16.8338 10.2645 16.8339 10.2586 16.834 10.2527V9.6418C16.834 6.97205 14.6697 4.8078 12 4.8078C9.33027 4.8078 7.16602 6.97205 7.16602 9.6418V10.2538Z" fill="#00BD82"/>
</svg>
