<svg width="24" height="24" viewBox="0 0 24 24" fill="none" xmlns="http://www.w3.org/2000/svg">
<path opacity="0.5" fill-rule="evenodd" clip-rule="evenodd" d="M10.1582 4.16563C11.2416 3.32304 12.7585 3.32304 13.8419 4.16564L21.614 10.2106C22.0499 10.5497 22.1285 11.178 21.7894 11.6139C21.4503 12.0499 20.8221 12.1284 20.3861 11.7893L12.614 5.74434C12.2529 5.46348 11.7472 5.46348 11.3861 5.74434L3.61399 11.7893C3.17804 12.1284 2.54976 12.0499 2.21069 11.6139C1.87162 11.178 1.95016 10.5497 2.38611 10.2106L10.1582 4.16563Z" fill="#00BD82"/>
<path fill-rule="evenodd" clip-rule="evenodd" d="M18.2222 21C18.65 21 19 20.64 19 20.1999L18.9844 20.1911V12.782C18.9844 12.534 18.8756 12.294 18.6889 12.15L12.4668 7.17332C12.1868 6.94209 11.798 6.94209 11.518 7.17412L5.29591 12.1588C5.10925 12.3028 4.99259 12.5428 5.00037 12.7908V20.1999C5.00037 20.64 5.34258 21 5.77812 21H10V16H14V21H18.2222Z" fill="#00BD82"/>
</svg>
