<svg width="24" height="24" viewBox="0 0 24 24" fill="none" xmlns="http://www.w3.org/2000/svg">
<path fill-rule="evenodd" clip-rule="evenodd" d="M12 5C8.13401 5 5 8.13401 5 12C5 15.866 8.13401 19 12 19C15.866 19 19 15.866 19 12C19 8.13401 15.866 5 12 5ZM12 3C7.02944 3 3 7.02944 3 12C3 16.9706 7.02944 21 12 21C16.9706 21 21 16.9706 21 12C21 7.02944 16.9706 3 12 3Z" fill="#00BD82"/>
<g opacity="0.5">
<path d="M11.0361 13.0625C11.0361 13.6148 11.4838 14.0625 12.0361 14.0625C12.5884 14.0625 13.0361 13.6148 13.0361 13.0625L13.0361 7.75462C13.0361 7.20233 12.5884 6.75462 12.0361 6.75462C11.4838 6.75462 11.0361 7.20233 11.0361 7.75462V13.0625Z" fill="#00BD82"/>
<path d="M11.0361 16.2454C11.0361 16.7976 11.4838 17.2454 12.0361 17.2454C12.5884 17.2454 13.0361 16.7976 13.0361 16.2454V16.0406C13.0361 15.4884 12.5884 15.0406 12.0361 15.0406C11.4838 15.0406 11.0361 15.4884 11.0361 16.0406V16.2454Z" fill="#00BD82"/>
</g>
</svg>
