<svg width="24" height="24" viewBox="0 0 24 24" fill="none" xmlns="http://www.w3.org/2000/svg">
<path opacity="0.5" fill-rule="evenodd" clip-rule="evenodd" d="M7 3C4.79086 3 3 4.79086 3 7V17C3 19.2091 4.79086 21 7 21H17C19.2091 21 21 19.2091 21 17V7C21 4.79086 19.2091 3 17 3H7ZM13.0411 15.9969C13.4276 16.0888 13.7452 16.393 13.8948 16.7969C13.9442 16.9301 14.0643 17.0118 14.1916 16.9986C14.2296 16.9947 14.262 16.9912 14.2888 16.9882C14.9064 16.9184 15.3918 16.821 15.674 16.7075L15.6757 16.7066C15.8652 16.6259 16 16.4185 16 16.1754L15.9998 16.1573L15.9982 16.1273L15.9977 16.1205C15.9974 16.117 15.9972 16.1135 15.997 16.1101C15.9968 16.1074 15.9967 16.1047 15.9967 16.1021C15.9485 15.3723 15.5577 13.6637 14.9739 11.7135C14.3065 9.4841 13.6085 7.67919 13.2938 7.32715C13.244 7.26847 13.1856 7.21815 13.1215 7.17984C13.0965 7.16365 13.0648 7.14816 13.0272 7.13355L13.0239 7.13226C12.8175 7.05311 12.4364 7 11.9996 7C11.5636 7 11.1825 7.05311 10.9757 7.1324L10.9728 7.13355C10.9352 7.14816 10.9035 7.16365 10.8785 7.17984C10.8144 7.21815 10.7564 7.26783 10.7062 7.32715C10.3915 7.67919 9.6935 9.4841 9.02611 11.7135C8.44232 13.6637 8.05146 15.3723 8.00332 16.1021C8.00318 16.108 8.00285 16.1142 8.00231 16.1205L8.00177 16.1273L8.00025 16.1573L8 16.1754C8 16.4185 8.13484 16.6259 8.32435 16.7066L8.32603 16.7075C8.60842 16.8211 9.09447 16.9185 9.71286 16.9884C9.73673 16.9911 9.76508 16.9941 9.7979 16.9975C9.93061 17.0114 10.0561 16.9268 10.1084 16.7882C10.2594 16.3886 10.5752 16.0882 10.9589 15.9969C11.1901 15.9363 11.5703 15.8969 12 15.8969C12.4297 15.8969 12.8099 15.9363 13.0411 15.9969Z" fill="#06AB78"/>
<circle cx="19" cy="5" r="3" fill="#06AB78"/>
</svg>
