<svg width="24" height="24" viewBox="0 0 24 24" fill="none" xmlns="http://www.w3.org/2000/svg">
<path opacity="0.5" d="M7 14V20.2338C7 21.0111 7.84797 21.4912 8.5145 21.0913L12 19L15.4855 21.0913C16.152 21.4912 17 21.0111 17 20.2338V14" fill="#06AB78"/>
<path d="M12 2C10.1435 2 8.36301 2.7375 7.05025 4.05025C5.7375 5.36301 5 7.14348 5 9C5 10.8565 5.7375 12.637 7.05025 13.9497C8.36301 15.2625 10.1435 16 12 16C13.8565 16 15.637 15.2625 16.9497 13.9497C18.2625 12.637 19 10.8565 19 9C19 7.14348 18.2625 5.36301 16.9497 4.05025C15.637 2.7375 13.8565 2 12 2Z" fill="#06AB78"/>
</svg>
