<svg width="24" height="24" viewBox="0 0 24 24" fill="none" xmlns="http://www.w3.org/2000/svg">
<path fill-rule="evenodd" clip-rule="evenodd" d="M5 11.8861C5.53988 11.6673 5.91844 11.1573 5.91844 10.563C5.91844 11.3567 6.59374 12.0001 7.42665 12.0001C8.25955 12.0001 8.93476 11.3567 8.93476 10.563C8.93476 11.3567 9.61005 12.0001 10.443 12.0001C11.2759 12.0001 11.9511 11.3567 11.9511 10.563C11.9511 11.3567 12.6264 12.0001 13.4593 12.0001C14.2922 12.0001 14.9674 11.3567 14.9674 10.563C14.9674 11.3567 15.6427 12.0001 16.4756 12.0001C17.3085 12.0001 17.9837 11.3567 17.9837 10.563C17.9837 11.1869 18.401 11.7179 18.9841 11.9166V18.1912L18.9996 18.2C18.9996 18.6401 18.6496 19.0001 18.2219 19.0001H5.77776C5.34221 19.0001 5 18.6401 5 18.2V11.8861ZM7.99951 14.0001C7.44723 14.0001 6.99951 14.4478 6.99951 15.0001V19.0001H10.9995V15.0001C10.9995 14.4478 10.5518 14.0001 9.99951 14.0001H7.99951ZM13 15.0001C13 14.4478 13.4477 14.0001 14 14.0001H16C16.5523 14.0001 17 14.4478 17 15.0001V16.0001C17 16.5524 16.5523 17.0001 16 17.0001H14C13.4477 17.0001 13 16.5524 13 16.0001V15.0001Z" fill="#06AB78"/>
<path opacity="0.5" d="M4.72418 5.63396L3.11217 10.2423C3.03792 10.4545 2.98792 10.6805 3.03609 10.9001C3.17446 11.5311 3.69931 12 4.41034 12C5.24324 12 5.91844 11.3566 5.91844 10.5629C5.91844 11.3566 6.59374 12 7.42665 12C8.25955 12 8.93476 11.3566 8.93476 10.5629C8.93476 11.3566 9.61005 12 10.443 12C11.2759 12 11.9511 11.3566 11.9511 10.5629C11.9511 11.3566 12.6264 12 13.4593 12C14.2922 12 14.9674 11.3566 14.9674 10.5629C14.9674 11.3566 15.6427 12 16.4756 12C17.3085 12 17.9837 11.3566 17.9837 10.5629C17.9837 11.3566 18.659 12 19.4919 12C20.2032 12 20.7995 11.5307 20.9585 10.8993C21.0133 10.6812 20.9621 10.4545 20.8878 10.2423L19.2758 5.63396C19.1434 5.25537 18.7716 5 18.3528 5H5.64723C5.22843 5 4.85662 5.25537 4.72418 5.63396Z" fill="#06AB78"/>
</svg>
