<svg width="24" height="24" viewBox="0 0 24 24" fill="none" xmlns="http://www.w3.org/2000/svg">
<path opacity="0.5" d="M6.00026 10L10.2114 12.1056C11.3375 12.6686 12.663 12.6686 13.7891 12.1056L18.0003 10L20.2114 11.1056C20.9485 11.4741 20.9485 12.5259 20.2114 12.8944L13.7891 16.1056C12.663 16.6686 11.3375 16.6686 10.2114 16.1056L3.78911 12.8944C3.05207 12.5259 3.05207 11.4741 3.78912 11.1056L6.00026 10Z" fill="#00BD82"/>
<path d="M10.2114 3.89446C11.3375 3.3314 12.663 3.3314 13.7891 3.89446L20.2114 7.1056C20.9485 7.47413 20.9485 8.52594 20.2114 8.89446L13.7891 12.1056C12.663 12.6687 11.3375 12.6687 10.2114 12.1056L3.78911 8.89446C3.05207 8.52593 3.05207 7.47413 3.78912 7.1056L10.2114 3.89446Z" fill="#00BD82"/>
<path d="M10.2114 16.1056L6.00026 14.0001L3.78912 15.1056C3.05207 15.4742 3.05206 16.526 3.78911 16.8945L10.2114 20.1056C11.3375 20.6687 12.663 20.6687 13.7891 20.1056L20.2114 16.8945C20.9485 16.526 20.9485 15.4742 20.2114 15.1056L18.0003 14.0001L13.7891 16.1056C12.663 16.6687 11.3375 16.6687 10.2114 16.1056Z" fill="#00BD82"/>
</svg>
