<svg viewBox="0 0 16 16" xmlns="http://www.w3.org/2000/svg"><path d="M13.11 11.057a7.374 7.374 0 01-.68 1.29c-.359.537-.652.909-.878 1.115-.35.34-.725.513-1.127.523-.288 0-.636-.087-1.041-.262-.406-.175-.78-.26-1.121-.26-.358 0-.742.086-1.153.26-.411.175-.742.267-.996.276-.385.017-.769-.162-1.152-.537-.245-.225-.551-.61-.918-1.155a8.161 8.161 0 01-.97-2.03 7.782 7.782 0 01-.407-2.417c0-.894.183-1.664.55-2.31a3.324 3.324 0 011.154-1.228c.48-.3 1-.454 1.56-.464.305 0 .707.1 1.205.296.498.196.817.296.957.296.105 0 .46-.117 1.06-.349.57-.215 1.05-.305 1.442-.27 1.066.091 1.866.533 2.399 1.33-.953.608-1.425 1.46-1.415 2.552.008.85.301 1.558.878 2.12.26.261.552.463.877.606-.07.215-.145.42-.224.618zM10.667.933c0 .667-.232 1.29-.693 1.866-.557.685-1.23 1.08-1.96 1.018A2.185 2.185 0 018 3.565c0-.64.264-1.325.734-1.886.235-.283.533-.519.895-.707.361-.185.703-.288 1.024-.305.01.089.014.178.014.266z" fill="white"></path></svg>