<svg viewBox="0 0 16 16" xmlns="http://www.w3.org/2000/svg"><path fill-rule="evenodd" clip-rule="evenodd" d="M8.765 7.42l1.684-1.685-7.575-4.274a.354.354 0 01-.045-.03.535.535 0 00-.196-.098L8.765 7.42zM2.002 1.934c-.003-.05 0-.1.007-.15l6.257 6.215-6.259 6.218a.703.703 0 01-.005-.17V1.952v-.02zM11.15 9.87L9.266 8l1.877-1.864 2.459 1.383c.321.18.398.368.398.481 0 .114-.078.304-.4.487L11.15 9.87zm-8.514 4.797a.539.539 0 00.196-.095.352.352 0 01.042-.028l7.575-4.28-1.684-1.685-6.129 6.088z" fill="white"></path></svg>