<svg viewBox="0 0 16 16" xmlns="http://www.w3.org/2000/svg"><g clip-path="url(#clip0_928_1458)"><path d="M5.033 14.5c6.037 0 9.34-5.002 9.34-9.339 0-.14-.004-.284-.01-.425A6.667 6.667 0 0016 3.036a6.472 6.472 0 01-1.884.516 3.3 3.3 0 001.443-1.815 6.599 6.599 0 01-2.083.797A3.287 3.287 0 007.88 5.527 9.323 9.323 0 011.115 2.1a3.286 3.286 0 001.016 4.38 3.287 3.287 0 01-1.487-.41v.041A3.281 3.281 0 003.278 9.33c-.483.132-.99.151-1.481.056a3.29 3.29 0 003.065 2.282A6.583 6.583 0 010 13.026 9.312 9.312 0 005.033 14.5z" fill="currentColor"></path></g><defs><clipPath id="clip0_928_1458"><path fill="#fff" d="M0 0h16v16H0z"></path></clipPath></defs></svg>