<svg width="120" height="73" viewBox="0 0 120 73" fill="none" xmlns="http://www.w3.org/2000/svg">
<g clip-path="url(#clip0_3899_86999)">
<path d="M27.3476 33.6137C26.6781 32.0171 24 32.8926 24 32.8926L19.6738 43.9656H22.7639L23.7425 41.442H27.2446L28.3262 43.9656H31.4163C31.4163 43.9141 28.0172 35.2102 27.3476 33.6137ZM24.412 39.0729L25.5966 36.1373L26.5236 39.0729H24.412Z" fill="#012635"/>
<path d="M63.5021 33.6137C62.8326 32.0171 60.1545 32.8926 60.1545 32.8926L55.8283 43.9656H58.9185L59.897 41.442H63.3991L64.4807 43.9656H67.6738C67.5708 43.9141 64.1717 35.2102 63.5021 33.6137ZM60.515 39.0729L61.6996 36.1373L62.6266 39.0729H60.515Z" fill="#012635"/>
<path d="M31.6223 32.6351V43.9141H34.5064V34.0257C34.5064 34.0257 34.97 32.4806 31.6223 32.6351Z" fill="#012635"/>
<path d="M88.8927 32.6351V43.9141H91.7768V34.0257C91.8283 34.0257 92.2403 32.4806 88.8927 32.6351Z" fill="#012635"/>
<path d="M42.6438 39.2788C44.8069 38.3003 44.5493 36.0857 44.5493 36.0857C44.6008 31.09 36.1545 32.9441 36.1545 32.9441V43.914H39.1416V39.9484H39.5536C40.2085 41.0219 40.8781 42.0864 41.5622 43.1415C42.6953 44.9956 45.3219 43.6565 45.3219 43.6565L42.6438 39.2788ZM39.0386 37.7853V34.8496C39.0386 34.8496 41.5622 34.3861 41.5622 36.3432C41.5622 38.3003 39.0386 37.7853 39.0386 37.7853Z" fill="#012635"/>
<path d="M84.1545 33.6136C83.485 32.017 80.8069 32.8926 80.8069 32.8926L76.7897 43.09L74.4721 39.2788C76.6352 38.3003 76.3777 36.0857 76.3777 36.0857C76.4292 31.09 67.9828 32.9441 67.9828 32.9441V43.914H70.97V39.9484H71.382C72.0368 41.0219 72.7064 42.0864 73.3906 43.1415C74.2146 44.429 75.7082 44.1715 76.5322 43.914H79.5708L80.5493 41.3904H84.0515L85.133 43.914H88.3262C88.2747 43.914 84.824 35.2102 84.1545 33.6136ZM70.8669 37.7853V34.8496C70.8669 34.8496 73.3906 34.3861 73.3906 36.3432C73.3906 38.3003 70.8669 37.7853 70.8669 37.7853ZM81.2189 39.0728L82.4034 36.1372L83.3305 39.0728H81.2189Z" fill="#012635"/>
<path d="M54.9013 40.618C54.9013 40.618 57.0644 42.5751 55.4163 43.3476C53.8197 44.1716 49.6481 45.7167 46.8669 41.1845C46.8669 41.1845 45.0644 35.8283 48.927 33.3562C48.927 33.3562 52.0687 31.2446 56.0343 33.7682C56.0343 33.7682 56.7038 35.0557 55.0043 36.0858C55.0043 36.0858 54.0257 34.9012 51.9657 34.9527C49.9056 35.0557 49.442 37.6308 49.4935 38.3519C49.545 39.0729 49.5966 41.442 52.2232 41.751C52.2747 41.8025 53.6137 42.163 54.9013 40.618Z" fill="#012635"/>
<path d="M100.635 37.8882C101.82 37.0127 101.717 35.6221 101.717 35.6221C101.665 31.3474 93.4249 32.8925 93.4249 32.8925V44.017C93.4249 44.017 98.0086 44.12 99.2961 44.017C100.584 43.9139 102.283 42.5749 102.283 40.5148C102.283 38.4032 100.635 37.8882 100.635 37.8882ZM96.412 34.6951C96.412 34.6951 98.6781 34.2315 98.7296 35.9311C98.7811 37.6307 96.412 37.1672 96.412 37.1672V34.6951ZM96.412 41.6994V39.2273C96.412 39.2273 99.1416 38.7637 99.1931 40.4633C99.2961 42.1629 96.412 41.6994 96.412 41.6994Z" fill="#012635"/>
<path d="M2.06007 41.2875C2.06007 41.2875 8.13733 42.163 10.4034 44.8411L11.6395 43.9656C11.6395 43.9141 7.72531 39.5364 2.06007 41.2875Z" fill="#012635"/>
<path d="M10.5064 42.9356C10.5064 42.9356 14.6266 39.7939 18.8498 41.4935C18.8498 41.4935 15.3476 41.2875 11.6395 43.9656L10.5064 42.9356Z" fill="#012635"/>
<path d="M88.7897 31.502C89.4439 31.502 89.9742 30.9717 89.9742 30.3175C89.9742 29.6633 89.4439 29.1329 88.7897 29.1329C88.1355 29.1329 87.6051 29.6633 87.6051 30.3175C87.6051 30.9717 88.1355 31.502 88.7897 31.502Z" fill="#012635"/>
<path d="M91.5193 31.502C92.1735 31.502 92.7039 30.9717 92.7039 30.3175C92.7039 29.6633 92.1735 29.1329 91.5193 29.1329C90.8651 29.1329 90.3348 29.6633 90.3348 30.3175C90.3348 30.9717 90.8651 31.502 91.5193 31.502Z" fill="#012635"/>
<path d="M103.107 32.6351V43.9656H111.039C111.039 43.9656 111.605 41.751 109.7 41.8025H106.043V39.3819H109.7V37.0643H106.043V35.0557H109.494C109.494 35.0557 111.039 35.4677 110.936 32.6351H103.107Z" fill="#012635"/>
<path fill-rule="evenodd" clip-rule="evenodd" d="M11.897 40.103L12.8865 37.5207L15.1416 36.0343L12.9785 37.3219L12.9106 37.4578L16.1202 29.0815C16.1202 29.0815 16.5322 34.3863 15.5021 36.3948C15.5021 36.3948 15.0386 37.5794 13.4936 38.5064C13.5042 38.5064 13.4706 38.5308 13.4046 38.5786C13.1524 38.7614 12.4276 39.2866 11.897 40.103ZM14.6266 37.4249L12.3605 38.9184L12.4635 38.7124L14.6266 37.4249ZM14.8841 36.8068L12.618 38.3004L12.721 38.0944C12.721 38.0429 14.1631 37.1159 14.8841 36.8068ZM15.4506 35.2103L13.1845 36.7553L13.2875 36.5493L15.4506 35.2103ZM15.5536 34.5408L13.4421 36.1888L13.5451 35.9828C13.4936 35.9828 14.4721 35.2103 15.5536 34.5408ZM15.6051 33.9742L13.6996 35.4678L13.8026 35.2618L15.6051 33.9742ZM15.4506 33.4592L14.0086 34.6953L14.1116 34.4893C14.1116 34.4893 14.6781 33.9742 15.4506 33.4592ZM15.7081 32.7897L14.2661 34.0257L14.3691 33.8197C14.3691 33.7682 14.9871 33.2532 15.7081 32.7897ZM15.7081 32.0171C15.7081 32.0171 14.8326 32.7897 14.6266 33.1502L14.7296 32.9442C14.7296 32.8927 15.0901 32.4807 15.7081 32.0171ZM15.8112 31.4506L14.8841 32.3777L14.9871 32.1717C14.9871 32.1717 15.1416 31.9656 15.8112 31.4506ZM15.1931 31.5536L16.1202 30.6265C15.4507 31.2445 15.2962 31.3476 15.2962 31.3476L15.1931 31.5536ZM15.5537 30.7295C15.8112 30.4205 16.0172 30.1115 16.0172 30.1115C15.8627 30.266 15.6567 30.472 15.6567 30.5235L15.5537 30.7295Z" fill="#012635"/>
<path fill-rule="evenodd" clip-rule="evenodd" d="M13.8878 39.7746L12.9785 40.7725C13.9571 39.9999 15.0901 39.8969 15.0901 39.8969C16.8412 39.5879 17.7167 38.6609 17.7167 38.6609C19.3648 37.1673 20.9099 32.0686 20.9099 32.0686L18.1891 35.0543C18.2145 35.0484 18.2761 35.0229 18.368 34.9849C18.5877 34.894 18.9808 34.7313 19.4678 34.5921L18.0608 35.1951L15.557 37.9428C15.5977 37.956 16.0033 37.873 16.4978 37.7717L16.4978 37.7717L16.4978 37.7717L16.4978 37.7717C17.038 37.661 17.6843 37.5287 18.0773 37.4762C18.0773 37.4762 15.8946 37.8643 15.4361 38.0755L14.0115 39.6389L15.7311 39.3523C15.0594 39.4699 14.142 39.6468 13.8878 39.7746ZM15.7311 39.3523L16.4807 39.2273C16.4807 39.2273 16.1548 39.278 15.7311 39.3523ZM19.7768 34.0771C19.7768 34.0771 18.9013 34.4376 18.5923 34.6436L18.7468 34.4891C18.7468 34.4891 18.9528 34.3861 19.7768 34.0771ZM19.2103 35.3132C19.2103 35.3132 17.7683 35.7252 17.4077 35.9312L17.5623 35.7767C17.5623 35.7767 18.3863 35.4677 19.2103 35.3132ZM16.8927 36.4977C17.2532 36.2917 18.6953 35.8797 18.6953 35.8797C17.8198 36.0342 17.0472 36.3432 17.0472 36.3432L16.8927 36.4977ZM18.6953 36.3947L16.3777 37.1157L16.5322 36.9612C16.5322 36.9097 17.8198 36.5492 18.6953 36.3947ZM15.8112 37.6823L18.3863 36.9097L15.9657 37.5278L15.8112 37.6823ZM17.5108 38.1458C17.5108 38.1458 17.1848 38.1965 16.7611 38.2707L17.5108 38.1458ZM16.7611 38.2707C16.055 38.3944 15.0773 38.5835 14.8841 38.7123L15.0386 38.5578L16.7611 38.2707ZM16.9442 38.7638C16.9442 38.7638 16.6183 38.8145 16.1947 38.8887L16.9442 38.7638ZM16.1947 38.8887L14.4721 39.1758L14.3176 39.3303C14.5108 39.2016 15.4885 39.0125 16.1947 38.8887Z" fill="#012635"/>
<path fill-rule="evenodd" clip-rule="evenodd" d="M8.31065 38.2789L9.01286 40.1029C8.39483 39.0728 7.36479 38.5063 7.41629 38.5578C5.87123 37.6308 5.40771 36.4462 5.40771 36.4462C4.37767 34.4377 4.78968 29.1329 4.78968 29.1329L6.85825 34.5062L6.8498 34.4893L5.51074 33.4592L6.92034 34.6674L7.63847 36.5328C7.55555 36.4865 7.33995 36.3475 7.0688 36.1727C6.57924 35.857 5.9086 35.4245 5.51074 35.2103L7.70538 36.7066L7.97869 37.4166L7.93134 37.3219L5.76825 36.0343L8.01719 37.5166L8.21402 38.0279L6.07726 36.8068L8.31065 38.2789ZM8.54937 38.9184L6.28327 37.4249C7.0043 37.7339 8.44636 38.7124 8.44636 38.7124L8.54937 38.9184ZM7.46782 36.1888C7.26181 35.8798 5.35623 34.5408 5.35623 34.5408C6.43778 35.2103 7.41632 35.9828 7.36482 35.9828L7.46782 36.1888ZM7.21031 35.4678L5.30473 33.9742C6.07726 34.4378 7.15881 35.2618 7.10731 35.2618L7.21031 35.4678ZM6.64379 34.0257L5.20173 32.7897C5.92276 33.2532 6.59229 33.7682 6.54078 33.8197L6.64379 34.0257ZM6.28327 33.1502C6.07726 32.7897 5.20173 32.0171 5.20173 32.0171C5.87126 32.4807 6.23177 32.8927 6.18027 32.9442L6.28327 33.1502ZM6.02576 32.3777L5.09872 31.4506C5.76825 31.9656 5.97426 32.1717 5.92276 32.1717L6.02576 32.3777Z" fill="#012635"/>
<path fill-rule="evenodd" clip-rule="evenodd" d="M4.42919 39.2274C4.42919 39.2274 4.7551 39.2781 5.17879 39.3523L4.42919 39.2274ZM6.89839 39.6389L5.17879 39.3523C5.85052 39.47 6.76802 39.6469 7.0221 39.7747L7.93133 40.7725C6.95279 39.9999 5.81974 39.8969 5.81974 39.8969C4.06867 39.5879 3.19313 38.6609 3.19313 38.6609C1.54506 37.1673 0 32.0686 0 32.0686L2.71585 35.049C2.62926 35.0072 2.14108 34.7786 1.44206 34.5922L2.84909 35.1952L3.37401 35.7713C3.34294 35.7624 3.28682 35.7434 3.21053 35.7175C2.92354 35.6201 2.35095 35.4257 1.75108 35.3132C1.75108 35.3132 3.04736 35.6836 3.48914 35.8976L3.89038 36.3379C3.86337 36.3299 3.81653 36.3133 3.75274 36.2907C3.48495 36.1957 2.9184 35.9949 2.2661 35.8797C2.2661 35.8797 3.56667 36.2513 4.00635 36.4652L5.43121 38.0288L5.35622 37.9913L5.0842 37.9347C4.29243 37.7267 2.88412 37.4763 2.88412 37.4763L5.0842 37.9347C5.22862 37.9726 5.35253 38.0091 5.44364 38.0425L5.91159 38.556L4.20027 38.2708C3.77657 38.1965 3.45065 38.1458 3.45065 38.1458L4.20027 38.2708C4.86135 38.3866 5.76045 38.5597 6.03097 38.687L6.89839 39.6389ZM3.96567 38.7639C3.96567 38.7639 4.29156 38.8146 4.71524 38.8888L3.96567 38.7639ZM4.71524 38.8888C5.42138 39.0125 6.39914 39.2016 6.59228 39.3304L6.43777 39.1759L4.71524 38.8888ZM5.09871 37.6823L2.52361 36.9098L4.94421 37.5278L5.09871 37.6823ZM4.58369 37.1158L2.2661 36.3948C3.14163 36.5493 4.42919 36.9098 4.42919 36.9613L4.58369 37.1158ZM2.3176 34.6437C2.00859 34.4377 1.13305 34.0772 1.13305 34.0772C1.95708 34.3862 2.21459 34.4892 2.16309 34.4892L2.3176 34.6437Z" fill="#012635"/>
<path fill-rule="evenodd" clip-rule="evenodd" d="M8.39485 35.2618C8.18884 32.9958 10.4549 28.2061 10.4549 28.2061C10.4549 28.2061 12.721 32.9958 12.515 35.2618C12.515 35.2618 12.4635 36.5494 11.4335 37.94C11.4335 37.94 10.6609 38.764 10.4549 40C10.2489 38.764 9.5279 37.94 9.47639 37.94C8.44635 36.5494 8.39485 35.2618 8.39485 35.2618ZM12 36.4978C12 36.4978 10.5579 38.3004 10.4549 38.7124V38.5064C10.4549 38.4549 11.485 37.0643 12 36.4978ZM12 35.8283C12 35.8283 10.5579 37.6308 10.4549 38.0429V37.8368C10.4549 37.7853 11.485 36.3948 12 35.8283ZM12 35.0042C12 35.0042 11.6217 35.4771 11.2387 35.9938L12 35.0042ZM11.2387 35.9938C10.874 36.486 10.5052 37.0178 10.4549 37.2188V37.0128L11.2387 35.9938ZM12 34.1802L10.5064 36.3708V36.4463L10.4806 36.4085L10.4549 36.4463V36.3708L8.96134 34.1802C9.35263 34.5715 10.0115 35.5276 10.328 35.987L10.328 35.9871L10.3281 35.9871C10.3936 36.0822 10.4445 36.156 10.4753 36.1991C10.6221 35.9479 11.5276 34.6525 12 34.1802ZM11.8455 33.5107C11.8455 33.5107 10.5579 35.4162 10.4549 35.8283V35.6223C10.4549 35.5707 11.1244 34.4892 11.8455 33.5107ZM10.4549 35.0042V34.7982L11.691 32.9441L10.4549 35.0042ZM11.382 32.5321L10.5064 34.0887V34.1802L10.4807 34.1344L10.4549 34.1802V34.0887L9.57937 32.5322C9.87074 32.9401 10.1127 33.348 10.2771 33.6254L10.2772 33.6254C10.3674 33.7775 10.4343 33.8903 10.4733 33.9424C10.5586 33.7955 10.9307 33.1638 11.382 32.5321ZM11.382 31.7596L10.5064 33.3161V33.4077L10.4807 33.3619L10.4549 33.4077V33.3162L9.57937 31.7596C9.87074 32.1676 10.1127 32.5755 10.2771 32.8528L10.2771 32.8528C10.3674 33.0049 10.4343 33.1178 10.4733 33.1698C10.5586 33.023 10.9307 32.3913 11.382 31.7596ZM11.0729 31.0901C11.0729 31.0901 10.5579 32.1201 10.4549 32.5321V32.3261C10.4549 32.2746 10.6609 31.7081 11.0729 31.0901ZM10.9699 30.472C10.9699 30.472 10.5579 31.2961 10.4549 31.7081V31.5021C10.4549 31.5021 10.5579 31.2446 10.9699 30.472ZM10.9699 29.5965C10.9699 29.5965 10.8897 29.7571 10.7911 29.9719C10.843 29.8645 10.9023 29.7402 10.9699 29.5965ZM10.7911 29.9719C10.6664 30.2437 10.5125 30.6024 10.4549 30.8326V30.6265C10.4549 30.6265 10.5269 30.5186 10.7911 29.9719ZM10.6609 29.1845L10.6449 29.2404C10.651 29.2215 10.6564 29.2028 10.6609 29.1845ZM10.6449 29.2404L10.4549 29.9055V29.6995C10.4549 29.6778 10.4824 29.6194 10.5181 29.5436L10.5181 29.5436C10.5595 29.4558 10.6118 29.3447 10.6449 29.2404ZM8.90984 36.4978C8.90984 36.4978 10.3519 38.3004 10.4549 38.7124V38.5064C10.4549 38.4549 9.42486 37.0644 8.90984 36.4978ZM8.90984 35.8283C8.90984 35.8283 10.3519 37.6309 10.4549 38.0429V37.8369C10.4549 37.7854 9.42486 36.3948 8.90984 35.8283ZM8.90984 35.0043C8.90984 35.0043 9.28816 35.4772 9.67108 35.9939L8.90984 35.0043ZM9.67108 35.9939L10.4549 37.0129V37.2189C10.4047 37.0179 10.0358 36.486 9.67108 35.9939ZM9.06435 33.5107C9.06435 33.5107 10.3519 35.4163 10.4549 35.8283V35.6223C10.4549 35.5708 9.83688 34.4892 9.06435 33.5107ZM9.21885 32.9442L10.4549 35.0043V34.7983C10.4549 34.7983 9.78538 33.6137 9.21885 32.9442ZM9.83688 31.0901C9.83688 31.0901 10.3519 32.1201 10.4549 32.5322V32.3262C10.4549 32.2747 10.2489 31.7081 9.83688 31.0901ZM9.93988 30.4721C9.93988 30.4721 10.3519 31.2961 10.4549 31.7081V31.5021C10.4549 31.5021 10.4034 31.2446 9.93988 30.4721ZM9.93988 29.5965C9.93988 29.5965 10.0202 29.7571 10.1187 29.9719C10.0668 29.8646 10.0075 29.7403 9.93988 29.5965ZM10.1187 29.9719C10.3829 30.5186 10.4549 30.6266 10.4549 30.6266V30.8326C10.3974 30.6025 10.2434 30.2438 10.1187 29.9719ZM10.2489 29.1845L10.2649 29.2405C10.2589 29.2215 10.2535 29.2028 10.2489 29.1845ZM10.2649 29.2405L10.4549 29.9056V29.6995C10.4549 29.6778 10.4274 29.6194 10.3917 29.5437L10.3917 29.5437C10.3504 29.4558 10.298 29.3447 10.2649 29.2405Z" fill="#012635"/>
<path d="M112.532 40.7725C112.532 40.7725 116.086 42.7811 116.858 41.1845C116.858 41.1845 117.94 39.897 114.747 39.1244C114.747 39.1244 110.73 38.6609 111.605 35.0557C112.481 31.4506 117.991 32.7382 118.3 32.8927C118.609 33.0472 121.082 33.6652 118.815 35.9313C118.815 35.9313 114.901 33.3047 114.541 35.7253C114.541 35.7253 114.386 36.4978 117.837 37.5794C117.837 37.5794 121.854 39.2274 118.918 43.0386C118.918 43.0386 117.476 45.2532 112.481 43.6566C112.532 43.7081 110.215 43.0386 112.532 40.7725Z" fill="#012635"/>
</g>
<defs>
<clipPath id="clip0_3899_86999">
<rect width="120" height="16.9957" fill="white" transform="translate(0 28)"/>
</clipPath>
</defs>
</svg>
