<svg width="120" height="73" viewBox="0 0 120 73" fill="none" xmlns="http://www.w3.org/2000/svg">
<g clip-path="url(#clip0_3899_86957)">
<path d="M9 38.2186C9 34.9882 10.9805 32.5247 14.1014 32.5247C14.7765 32.4891 15.4483 32.6417 16.0426 32.9657C16.6369 33.2897 17.1305 33.7724 17.469 34.3607V32.8114H20.8597V43.6025H17.469V42.0532C17.1098 42.6319 16.605 43.1051 16.0055 43.4248C15.4061 43.7444 14.7333 43.8993 14.0552 43.8737C10.8495 43.9124 9 41.4644 9 38.2186ZM17.6077 38.2186C17.6077 36.6692 16.7369 35.391 15.0416 35.391C13.3462 35.391 12.4755 36.5763 12.4755 38.2186C12.4755 39.8609 13.4541 41.0615 15.0416 41.0615C16.629 41.0615 17.6077 39.7834 17.6077 38.2186Z" fill="#012635"/>
<path d="M21.4299 32.8113H24.8438V34.3606C25.1844 33.7481 25.6933 33.2472 26.3096 32.9175C26.9259 32.5878 27.6234 32.4434 28.3192 32.5014C30.9316 32.5014 32.2493 33.981 32.2493 36.917V43.6025H28.8123V38.0558C28.8123 36.2431 28.2961 35.4142 26.9167 35.4142C25.5373 35.4142 24.8438 36.3128 24.8438 37.9706V43.6025H21.4299V32.8113Z" fill="#012635"/>
<path d="M41.9051 38.2419C41.9051 34.9418 44.2169 32.5481 47.8773 32.5481C51.5377 32.5481 53.8341 34.9418 53.8341 38.2419C53.8341 41.542 51.5222 43.9358 47.8773 43.9358C44.2323 43.9358 41.9051 41.5342 41.9051 38.2419ZM50.4434 38.2419C50.4434 36.6074 49.4879 35.4376 47.8773 35.4376C46.2667 35.4376 45.3111 36.6306 45.3111 38.2419C45.3111 39.8532 46.2513 41.0462 47.8773 41.0462C49.5032 41.0462 50.4434 39.8765 50.4434 38.2419Z" fill="#012635"/>
<path d="M61.3552 40.3956H64.7459C64.7459 41.1702 65.4626 41.6504 66.5107 41.6504C67.2812 41.6504 67.759 41.2863 67.759 40.6589C67.759 40.1709 67.5124 39.8842 66.5954 39.6518L64.3452 39.0941C62.6268 38.668 61.6481 37.5447 61.6481 35.9334C61.6481 33.8883 63.4744 32.5481 66.2718 32.5481C69.3079 32.5481 71.0649 33.7333 71.0649 35.8869H67.6973C67.6973 35.1123 67.1426 34.7172 66.2256 34.7172C65.4549 34.7172 65.0002 35.0813 65.0002 35.5926C65.0002 36.1038 65.3162 36.3672 66.187 36.6229L68.4988 37.2503C70.1941 37.6997 71.219 38.73 71.219 40.349C71.219 42.5878 69.3696 43.9126 66.5107 43.9126C63.3897 43.9358 61.3552 42.5026 61.3552 40.3956Z" fill="#012635"/>
<path d="M79.1794 40.9067V43.6412C78.4157 43.7696 77.642 43.8292 76.8677 43.8194C75.257 43.8194 73.0146 43.4631 73.0146 39.8531V35.8558H71.3192V33.1445H73.0146V29.8909H76.4283V33.1832H78.8558V35.8558H76.4283V39.1094C76.4283 40.6588 77.0757 40.9454 77.9233 40.9454C78.3424 40.9609 78.7621 40.9479 79.1794 40.9067Z" fill="#012635"/>
<path d="M79.1179 38.2419C79.1179 34.9418 81.4297 32.5481 85.0901 32.5481C88.7504 32.5481 91.0469 34.9418 91.0469 38.2419C91.0469 41.542 88.735 43.9358 85.0901 43.9358C81.4451 43.9358 79.1179 41.5342 79.1179 38.2419ZM87.6562 38.2419C87.6562 36.6074 86.7007 35.4376 85.0901 35.4376C83.4794 35.4376 82.5317 36.6074 82.5317 38.2419C82.5317 39.8765 83.4641 41.0462 85.0901 41.0462C86.716 41.0462 87.6562 39.8765 87.6562 38.2419Z" fill="#012635"/>
<path d="M91.4553 32.8346H94.8691V35.0812C95.0021 34.3894 95.3714 33.7661 95.9131 33.3191C96.4549 32.872 97.1351 32.6294 97.836 32.6332C98.1368 32.6224 98.4377 32.6536 98.7299 32.7262V35.9333C98.3902 35.8862 98.0478 35.8629 97.705 35.8636C95.8554 35.8636 94.8691 37.0721 94.8691 39.4735V43.6412H91.4553V32.8346Z" fill="#012635"/>
<path d="M110.058 39.1793H102.159C102.221 40.5969 103.161 41.3561 104.679 41.3561C105.727 41.3561 106.397 41.0617 106.683 40.3956H110.027C109.696 42.5181 107.53 43.9358 104.679 43.9358C101.019 43.9358 98.7684 41.8519 98.7684 38.2419C98.7684 34.632 101.08 32.5481 104.563 32.5481C107.908 32.5481 110.189 34.632 110.189 37.6764C110.179 38.1797 110.135 38.6818 110.058 39.1793ZM106.783 37.0489C106.809 36.7428 106.766 36.4346 106.658 36.1474C106.549 35.8602 106.377 35.6015 106.154 35.3906C105.932 35.1797 105.665 35.0222 105.373 34.9297C105.082 34.8372 104.773 34.8122 104.471 34.8566C104.173 34.8339 103.873 34.8741 103.591 34.9745C103.309 35.0748 103.051 35.2333 102.833 35.4396C102.616 35.6459 102.443 35.8956 102.327 36.1728C102.211 36.4499 102.154 36.7483 102.159 37.0489H106.783Z" fill="#012635"/>
<path fill-rule="evenodd" clip-rule="evenodd" d="M57.6563 35.1557C58.1752 33.1987 59.5673 32.1951 63.0506 32.7571C61.7972 33.4897 61.3492 34.3884 60.9644 35.1603C60.4238 36.2452 60.0078 37.0797 57.6563 36.8511V43.6412H54.2502V32.8346H57.6563V35.1557Z" fill="#012635"/>
<path d="M39.5856 43.6026L36.1563 38.9545V43.6026H32.8041V29H36.1794V37.4052L39.7011 32.8656H43.7006L39.4314 37.9629L43.7468 43.6026H39.5856Z" fill="#012635"/>
</g>
<defs>
<clipPath id="clip0_3899_86957">
<rect width="101.222" height="15" fill="white" transform="translate(9 29)"/>
</clipPath>
</defs>
</svg>
