<svg width="120" height="73" viewBox="0 0 120 73" fill="none" xmlns="http://www.w3.org/2000/svg">
<g clip-path="url(#clip0_3899_86723)">
<path d="M53.6316 44.2226L48.3512 30.2594H43.8252L38.593 44.2226H42.6696L43.3598 42.2164H48.8648L49.555 44.2226H53.6316ZM47.8858 39.0707H44.3228L46.1043 33.8224L47.8858 39.0707Z" fill="#012635"/>
<path d="M64.7059 44.2226V34.1113H61.4799V40.6436C61.1108 41.125 60.4688 41.6226 59.554 41.6226C58.5107 41.6226 57.8848 41.2053 57.8848 39.9855V34.1113H54.6588V41.3176C54.6588 43.1794 55.686 44.4794 57.9811 44.4794C59.6824 44.4794 60.854 43.7251 61.4799 43.0189V44.2387H64.7059V44.2226Z" fill="#012635"/>
<path d="M76.9197 44.2226V30.2594H73.7098V35.299C72.8913 34.2879 71.832 33.8545 70.7246 33.8545C68.1887 33.8545 66.2467 35.8447 66.2467 39.1509C66.2467 42.5856 68.2369 44.4634 70.7246 44.4634C71.8481 44.4634 72.8752 43.9979 73.7098 43.035V44.2066H76.9197V44.2226ZM71.7838 41.6226C70.4999 41.6226 69.569 40.6596 69.569 39.1509C69.569 37.6423 70.5159 36.6953 71.7838 36.6953C72.474 36.6953 73.3086 37.0484 73.7259 37.5941V40.6917C73.3086 41.2534 72.474 41.6226 71.7838 41.6226Z" fill="#012635"/>
<path d="M95.3769 44.2226L91.4608 38.7176L95.1844 34.1113H91.3003L88.2188 38.1558V30.2594H84.9928V44.2226H88.2188V41.7991L89.1818 40.6436L91.3966 44.2226H95.3769Z" fill="#012635"/>
<path d="M105.986 44.2227V34.1114H102.76V35.2991C101.957 34.288 100.898 33.8546 99.7905 33.8546C97.2546 33.8546 95.3126 35.8448 95.3126 39.151C95.3126 42.5856 97.3028 44.4635 99.7905 44.4635C100.914 44.4635 101.941 43.998 102.776 43.035V44.2067H105.986V44.2227ZM100.834 41.6227C99.5497 41.6227 98.6189 40.6597 98.6189 39.151C98.6189 37.6423 99.5658 36.7275 100.834 36.7275C101.524 36.7275 102.358 37.0806 102.776 37.6263V40.7078C102.374 41.2535 101.54 41.6227 100.834 41.6227Z" fill="#012635"/>
<path d="M80.9963 32.8113C82.0556 32.8113 82.9063 31.9447 82.9063 30.8854C82.9063 29.8261 82.0556 28.9755 80.9963 28.9755C79.9371 28.9755 79.0864 29.8261 79.0864 30.8854C79.0864 31.9447 79.9371 32.8113 80.9963 32.8113ZM82.6655 33.7422H79.3272V44.2227H82.6655V33.7422Z" fill="#012635"/>
<path d="M35.2226 34.2076C35.2226 44.2226 25.6891 47.593 25.1113 47.593V44.2226C19.526 44.2226 15 39.6966 15 34.1113C15 28.526 19.526 24 25.1113 24C30.6966 24 35.2226 28.526 35.2226 34.2076Z" fill="#012635"/>
</g>
<defs>
<clipPath id="clip0_3899_86723">
<rect width="90.9857" height="23.5931" fill="white" transform="translate(15 24)"/>
</clipPath>
</defs>
</svg>
