<svg width="120" height="73" viewBox="0 0 120 73" fill="none" xmlns="http://www.w3.org/2000/svg">
<g clip-path="url(#clip0_3899_86745)">
<path d="M68.5444 47.431H64.4989C64.5126 47.7511 64.4989 48.1938 64.4989 48.8953V56.9727H67.9451C70.5195 56.9727 72.9782 55.8557 72.9782 52.0963C72.9782 49.1064 71.1938 47.431 68.5444 47.431ZM67.7749 55.1611H67.0121V49.1677H67.7749C69.2391 49.1677 70.4242 49.8965 70.4242 52.0963C70.4242 54.6775 69.2323 55.1611 67.7749 55.1611ZM78.4403 49.2426C78.9034 49.2426 80.2587 49.2767 80.2587 49.2767V47.431H74.2109L74.2245 48.8953V55.5084L74.2109 56.9727H76.7717C76.7717 56.9727 76.7376 56.2031 76.7376 55.5084V52.9068L78.4471 52.8931C78.8898 52.8931 79.8705 52.9272 79.8705 52.9272V51.17L78.4471 51.1905L76.7376 51.17V49.2495H78.4403V49.2426ZM58.8802 47.2267C57.5726 47.2267 54.5282 47.7171 54.5282 52.2734C54.5282 55.3109 56.0606 57.1225 58.744 57.1225C60.8417 57.1225 62.1425 56.5845 63.0755 55.9034C62.9666 55.7468 62.1833 54.337 62.0812 54.1871C61.5227 54.6162 60.5897 55.0453 59.3978 55.0453C58.1923 55.0453 57.2661 54.2416 57.2661 52.9749V52.8659L60.2559 52.8114L63.096 52.7842V52.0622C63.096 48.8068 61.7134 47.2267 58.8802 47.2267ZM60.399 51.17L58.8802 51.1973C58.3081 51.1973 57.2593 51.17 57.2593 51.17L57.2729 51.0406C57.3069 50.4822 57.5045 49.2086 58.9006 49.2086C60.324 49.2086 60.4058 50.4141 60.4058 51.0475V51.17H60.399ZM43.7062 49.7671C42.3372 49.7671 41.6494 50.7682 41.5268 51.1087H41.4995V46.641H40.6346V56.9182H41.4995V55.8081H41.5268C41.9899 56.7003 42.705 57.0817 43.7062 57.0817C45.6268 57.0817 46.5871 55.4948 46.5871 53.4244C46.5871 51.2994 45.763 49.7671 43.7062 49.7671ZM43.57 56.3393C42.0376 56.3393 41.4995 54.6979 41.4995 53.4175C41.4995 52.1372 41.9899 50.4958 43.57 50.4958C45.2113 50.4958 45.6404 52.0554 45.6404 53.4175C45.6404 54.7797 45.2113 56.3393 43.57 56.3393ZM49.6178 55.7536H49.6042L47.6427 49.9305H46.696L49.1751 56.9999L48.998 57.6197C48.7256 58.5255 48.4804 59.1385 47.738 59.1385C47.4248 59.1385 47.2613 59.084 47.091 59.0295L47.0093 59.7718C47.3152 59.8432 47.6282 59.8798 47.9424 59.8808C48.9163 59.8808 49.4066 58.9205 49.7404 57.9602L52.5327 49.9305H51.6269L49.6178 55.7536Z" fill="#012635"/>
<path d="M80.715 38.2571C80.715 38.2571 80.6537 37.2763 80.1838 37.1946C80.0748 37.1742 79.959 37.1674 79.8705 37.1061C79.8228 37.0788 79.7887 37.0312 79.7547 36.9903C79.6253 36.8132 79.564 36.5817 79.598 36.3637L79.1281 36.2888C79.2848 35.635 79.1622 34.3478 78.774 35.0697C78.3858 35.7916 77.2416 37.6509 77.1462 36.8949C77.0577 36.2479 77.405 34.9335 77.657 33.2649L78.7467 26.3113C79.3461 22.3134 74.6535 22.9128 71.8884 24.3975C71.7522 24.4656 71.7318 24.7721 71.7318 24.7721C71.582 24.8742 71.3232 25.0649 71.221 25.1943C71.078 25.3782 71.112 25.7937 71.112 25.7937C71.0848 26.0525 70.8737 26.1887 70.8737 26.4611C70.8737 26.8902 70.9213 27.3124 71.1393 27.6598C71.2074 27.7619 71.6841 27.4827 71.7318 27.6121C71.7454 27.7551 71.759 27.8368 72.2358 27.687C72.8351 27.5031 73.4753 27.4214 73.3459 28.0071L71.8067 34.9335C71.4185 36.6089 71.078 38.4682 71.078 39.2174C71.078 43.7192 77.153 43.2152 79.2916 41.6283C80.0407 41.0698 80.8784 40.1708 81.0351 39.2514C81.1032 38.8155 80.5243 39.0607 80.715 38.2571ZM48.8482 38.87C48.7869 38.4614 48.5212 38.0051 48.1943 37.7735C47.8742 37.5351 47.1659 38.0596 46.7232 38.1072C46.1988 38.1617 46.049 38.0255 45.9809 37.7258C45.8515 37.0993 45.9605 35.7439 46.2806 33.7144L47.3703 26.4543C47.595 24.8334 46.7369 23.7573 45.7221 23.444C44.7958 23.1579 43.8696 23.192 42.6028 23.5938C41.3769 23.9888 39.7696 25.0309 40.0148 25.4599C39.7969 25.603 39.4291 25.9094 39.4563 26.1955C39.2724 26.4951 39.1703 26.3044 39.0749 26.7676C38.9592 27.3192 39.2316 27.544 39.218 28.2046C39.3133 28.3749 39.7288 28.3544 40.0216 28.2591C40.0216 28.2591 40.9274 27.9594 40.9002 28.2523C40.9002 28.2523 40.9547 28.3136 40.9819 28.3204C41.2748 28.4089 42.201 27.7483 42.0239 28.3613C41.8469 28.9742 40.7776 32.577 40.26 35.5533C39.9603 37.2831 39.7969 38.9313 39.8582 39.6805C40.0148 41.5602 41.2067 42.9359 43.5836 42.9359C46.5121 42.9359 48.3442 41.6828 48.3169 41.1039C48.3101 40.9064 48.8413 40.4841 48.9095 40.2934C48.9571 40.1572 48.8754 39.7826 48.8754 39.7826C48.9026 39.6328 49.1478 39.5647 49.25 39.3195C49.3249 39.1084 48.9299 39.3944 48.8482 38.87ZM69.0825 37.2014C68.9531 37.1946 68.8169 37.1878 68.8032 37.0788C68.0064 37.8008 67.0802 38.6453 65.936 38.6453C64.7373 38.6453 63.5931 38.1413 62.5647 37.5896C61.8156 37.1878 60.9642 36.6429 60.1129 36.2752C59.8882 36.1866 59.6906 36.0981 59.4795 36.0232C59.4046 35.9959 59.3297 35.9687 59.2548 35.9483L66.2084 29.5735C67.7953 28.1229 68.4968 26.931 68.4968 25.6506C68.4968 24.1932 67.6182 22.94 65.4116 23.2465L65.4047 23.2397C65.3775 23.2533 65.3434 23.2601 65.3026 23.2669C65.2822 23.2669 65.2617 23.2737 65.2413 23.2805C65.0302 23.3146 64.7101 23.3282 64.5466 23.3759C64.3423 23.444 64.0631 23.4985 63.7498 23.5462C63.1096 23.6347 59.3978 23.5257 58.0016 23.2873L54.2422 22.6472L54.1128 22.6403C53.7246 22.5859 53.2751 22.5586 52.8187 22.5995C52.594 22.6199 52.3488 22.6608 52.1309 22.7153C51.9061 22.7697 51.6882 22.8515 51.5043 22.94C51.0752 23.1511 50.7892 23.3963 50.796 23.5938C50.8028 23.7437 50.9254 23.839 50.8028 23.8935C50.7006 23.9548 50.5372 24.0365 50.2511 24.2885C49.9651 24.5405 49.9651 24.7789 50.0945 24.9015C50.2239 25.0172 50.4282 25.1262 50.6734 25.276C51.1229 25.5417 50.8096 25.8549 50.6734 25.9231C50.7143 26.0048 50.6257 26.427 51.0616 26.7676C51.3545 26.9991 51.3885 27.4963 51.4566 27.5508C51.5452 27.5985 51.9334 27.7892 51.9947 27.8641C52.056 27.9458 52.09 28.0003 52.1036 28.0071C52.1785 28.048 52.3488 28.0548 52.6417 28.0752C53.0503 28.1093 53.5543 28.1706 53.9629 28.1706C54.1128 28.1706 54.031 28.3272 54.6304 28.3749C55.9312 28.4838 57.4363 28.3613 58.3762 28.2387L60.0857 28.0343C60.2968 28.0071 60.6577 27.9935 60.8689 27.9594C60.9642 27.9458 61.4614 27.9322 61.5091 27.8573C60.3104 29.6348 58.5328 30.8539 56.9596 32.2569L53.2955 35.5941C50.9594 37.6645 50.5644 38.4137 50.5644 39.735C50.5644 41.6964 51.8584 42.3639 53.5475 42.2889C53.9084 42.3707 54.8619 41.9144 56.3943 41.1107C57.0277 40.7838 57.3001 41.0017 57.9607 41.1856C58.4375 41.315 58.9074 41.4921 59.3705 41.6556C60.4739 42.0369 61.7134 42.466 62.844 42.7521C64.2742 43.113 65.3434 43.1266 66.3855 42.827C67.5365 42.4933 68.5172 41.567 68.5853 41.2742C68.6193 41.1107 68.6875 40.9473 68.7283 40.7634C68.8237 40.416 68.8713 40.2526 68.5989 40.0278C68.7283 39.9665 68.8713 39.8644 68.9803 39.7622C69.0893 39.66 69.1506 39.5579 69.1029 39.483C68.9531 39.2378 68.8237 39.0471 68.7487 38.7406C68.6806 38.4273 68.6738 38.2639 68.7896 37.9233C68.9122 37.6713 69.3685 37.4602 69.3549 37.3104C69.3617 37.1946 69.2119 37.215 69.0825 37.2014ZM50.2852 13.1736C48.8822 13.446 47.7516 13.8751 47.5814 13.8615C47.4111 13.8478 47.0161 13.3575 46.8595 13.3643C46.5121 13.3779 46.1648 13.303 45.7153 13.4665C45.0206 13.7253 44.7141 13.8615 44.1829 14.3859C43.5699 14.9988 43.0455 16.0068 42.9502 16.9194L43.0932 17.4643C43.0932 17.4643 43.0796 18.4041 43.2703 18.6902C44.0603 19.8616 44.0467 19.5007 44.646 20.3792C45.6812 20.6585 46.0081 20.5359 46.2465 20.5427C47.3158 20.5563 47.5678 20.2226 47.9287 19.6982L48.0717 19.4938C48.5962 19.2691 48.8073 19.0171 49.1751 18.0364C49.3658 17.5256 49.4475 17.1442 49.536 16.5789C49.536 16.5789 49.4611 15.8502 49.1751 15.7616C49.25 15.3802 49.1614 14.4472 49.7472 14.2497C49.8561 13.9909 50.0264 13.8683 50.6053 13.6844C51.0412 13.5482 50.9322 13.0442 50.2852 13.1736ZM74.4084 17.294C74.1087 18.2203 74.8442 19.957 75.5798 20.0455C75.5798 20.0455 75.9816 20.1681 76.2745 20.243C76.5673 20.3179 76.9351 20.5699 77.1258 20.5767C77.9839 20.6312 78.4879 20.4269 78.9238 20.1204C79.2371 19.9025 79.4755 19.3508 79.85 19.3644C80.5243 18.84 80.8103 17.8321 80.7627 16.6606C80.7559 16.4767 80.6196 15.748 80.6196 15.748C80.2382 15.101 80.5243 14.3927 80.0339 14.0317C80.0339 14.0317 79.312 14.3518 79.4891 13.4324C79.5912 12.9216 79.1009 13.0646 78.5015 13.5754C78.2155 13.8206 77.8613 13.4052 77.6911 13.4528C75.1303 14.1203 74.9736 15.7753 74.2381 16.4427C74.2313 16.6811 74.2245 16.9535 74.3403 17.185L74.4084 17.294Z" fill="#012635"/>
</g>
<defs>
<clipPath id="clip0_3899_86745">
<rect width="42.0896" height="47" fill="white" transform="translate(39 13)"/>
</clipPath>
</defs>
</svg>
