<svg width="120" height="73" viewBox="0 0 120 73" fill="none" xmlns="http://www.w3.org/2000/svg">
<g clip-path="url(#clip0_4010_90587)">
<path d="M72.9361 38.2907C72.9361 38.7972 72.8086 39.304 72.5107 39.7262C72.2127 40.1483 71.8299 40.486 71.2766 40.7393C70.7235 40.9926 70.0426 41.1195 69.2341 41.1195C68.5532 41.1195 67.915 41.035 67.2765 40.8662C66.6383 40.6973 66.1277 40.444 65.7447 40.1483L67.0213 38.6286C67.2765 38.7552 67.532 38.8396 67.8298 38.9663C68.3404 39.1351 68.8085 39.2196 69.2767 39.2196C70.1702 39.2196 70.6383 38.9663 70.6383 38.5019C70.6383 38.2486 70.5106 38.0798 70.2553 37.9529C70.0001 37.8263 69.5745 37.6996 69.0212 37.573C68.3829 37.4463 67.8724 37.2775 67.4468 37.1086C67.0213 36.9398 66.6808 36.6865 66.3404 36.3487C66.0426 36.011 65.8723 35.5043 65.8723 34.9132C65.8723 34.3643 66 33.8999 66.2978 33.4777C66.5957 33.0556 66.9787 32.7178 67.532 32.4646C68.0851 32.2113 68.7659 32.0844 69.5745 32.0844C70.1276 32.0844 70.6809 32.1689 71.1914 32.2955C71.7447 32.4222 72.2127 32.6332 72.5957 32.8443L71.2766 34.4065C70.6809 34.1532 70.085 34.0265 69.5319 34.0265C69.0638 34.0265 68.7234 34.111 68.5107 34.2376C68.2978 34.3643 68.1702 34.5753 68.1702 34.7866C68.1702 35.0399 68.298 35.2087 68.5532 35.2932C68.8085 35.4198 69.2341 35.5465 69.7872 35.6731C70.3253 35.7789 70.8524 35.9344 71.3617 36.1375C71.7873 36.3063 72.1277 36.5596 72.4681 36.8974C72.766 37.1931 72.9361 37.6996 72.9361 38.2907ZM120 38.2907C120 38.7972 119.872 39.304 119.574 39.7262C119.277 40.1483 118.894 40.486 118.34 40.7393C117.787 40.9926 117.106 41.1195 116.298 41.1195C115.617 41.1195 114.979 41.035 114.34 40.8662C113.702 40.6973 113.191 40.444 112.808 40.1483L114.085 38.6286C114.34 38.7552 114.596 38.8396 114.894 38.9663C115.404 39.1351 115.872 39.2196 116.34 39.2196C117.234 39.2196 117.702 38.9663 117.702 38.5019C117.702 38.2486 117.575 38.0798 117.319 37.9529C117.064 37.8263 116.638 37.6996 116.085 37.573C115.547 37.4672 115.02 37.3118 114.511 37.1086C114.085 36.9398 113.745 36.6865 113.404 36.3487C113.106 36.011 112.936 35.5043 112.936 34.9132C112.936 34.3643 113.064 33.8999 113.362 33.4777C113.66 33.0556 114.043 32.7178 114.596 32.4646C115.149 32.2113 115.83 32.0844 116.638 32.0844C117.191 32.0844 117.745 32.1689 118.255 32.2955C118.808 32.4222 119.277 32.6332 119.66 32.8443L118.34 34.4065C117.745 34.1532 117.149 34.0265 116.596 34.0265C116.128 34.0265 115.787 34.111 115.575 34.2376C115.362 34.3643 115.234 34.5753 115.234 34.7866C115.234 35.0399 115.362 35.2087 115.617 35.2932C115.872 35.4198 116.298 35.5465 116.851 35.6731C117.389 35.7789 117.916 35.9344 118.425 36.1375C118.851 36.3063 119.191 36.5596 119.532 36.8974C119.872 37.1931 120 37.6996 120 38.2907ZM15.7872 35.4198C15.7872 36.0953 15.6171 36.6443 15.3192 37.1084C15.0212 37.573 14.5958 37.9529 14.0425 38.2062C13.4892 38.4595 12.8084 38.5863 12.0852 38.5863H10.6383V40.866H8.25539V32.1268H12.0852C12.8511 32.1268 13.4894 32.2535 14.0425 32.5068C14.5958 32.7601 15.0212 33.1402 15.3192 33.6468C15.6596 34.1956 15.7872 34.7868 15.7872 35.4198ZM13.4043 35.4198C13.4043 34.9977 13.2767 34.7022 13.0213 34.4911C12.7658 34.28 12.4256 34.1534 11.9149 34.1534H10.5957V36.7287H11.9149C12.383 36.7287 12.766 36.6019 13.0214 36.391C13.2769 36.1801 13.4043 35.842 13.4043 35.4198ZM23.4469 39.0507V40.9506H16.766V32.2111H23.2766V34.111H19.1064V35.5887H22.4254V37.4463H19.1064V39.0505L23.4469 39.0507ZM32.4681 32.2111V40.9506H30.5107L26.8085 36.3063V40.9506H24.4681V32.2111H26.4255L30.1277 36.8553V32.2111H32.4681ZM47.5744 38.9663V40.9082H41.6596V32.1689H44.0425V38.9241H47.5744V38.9663ZM57.7872 40.9506H55.3191L54.6808 39.2618H51.1489L50.5107 40.9504H48.0852L51.7872 32.2111H54.1277L57.7872 40.9506ZM54 37.4041L52.9362 34.6175L51.8723 37.4041H54ZM65.234 38.2907C65.234 38.7972 65.1065 39.304 64.8084 39.7262C64.5106 40.1483 64.1276 40.486 63.5745 40.7393C63.0212 40.9926 62.3404 41.1195 61.532 41.1195C60.8511 41.1195 60.2127 41.035 59.5744 40.8662C58.9362 40.6973 58.4255 40.444 58.0426 40.1483L59.3192 38.6286C59.5744 38.7552 59.8297 38.8396 60.1277 38.9663C60.6383 39.1351 61.1064 39.2196 61.5746 39.2196C62.4681 39.2196 62.9362 38.9663 62.9362 38.5019C62.9362 38.2486 62.8085 38.0798 62.5532 37.9529C62.298 37.8263 61.8724 37.6996 61.3191 37.573C60.6808 37.4463 60.1703 37.2775 59.7447 37.1086C59.3192 36.9398 58.9787 36.6865 58.6383 36.3487C58.3405 36.011 58.1702 35.5043 58.1702 34.9132C58.1702 34.3643 58.2979 33.8999 58.5958 33.4777C58.8936 33.0556 59.2766 32.7178 59.8299 32.4646C60.383 32.2113 61.0638 32.0844 61.8724 32.0844C62.4255 32.0844 62.9788 32.1689 63.4893 32.2955C64.0426 32.4222 64.468 32.6332 64.8936 32.8443L63.5745 34.4065C62.9788 34.1532 62.3829 34.0265 61.8298 34.0265C61.3617 34.0265 61.0213 34.111 60.8086 34.2376C60.5957 34.3643 60.4681 34.5753 60.4681 34.7866C60.4681 35.0399 60.5957 35.2087 60.8511 35.2932C61.1064 35.4198 61.532 35.5465 62.0851 35.6731C62.6232 35.7789 63.1503 35.9344 63.6596 36.1375C64.085 36.3063 64.4255 36.5596 64.7659 36.8974C65.0639 37.1931 65.234 37.6996 65.234 38.2907ZM7.27653 36.5596C7.27653 39.0507 5.23401 41.1195 2.68078 41.1195C1.65952 41.1195 0.765808 40.7817 0 40.2328L1.53198 38.4175C1.8724 38.6286 2.25539 38.7552 2.68078 38.7552C3.87234 38.7552 4.85102 37.7841 4.85102 36.602C4.85102 35.4198 3.87234 34.4487 2.68096 34.4487C2.25521 34.4487 1.8724 34.5753 1.53198 34.7864L0 32.9713C0.765988 32.4222 1.7021 32.0844 2.68078 32.0844C5.23401 32.0422 7.27653 34.0686 7.27653 36.5596ZM39.1915 38.4173L40.7235 40.2329C39.9575 40.7817 39.0212 41.1195 38.0425 41.1195C35.5319 41.1195 33.4468 39.0929 33.4468 36.5596C33.4468 34.0689 35.4893 32 38.0425 32C39.0638 32 39.9575 32.3377 40.7235 32.8867L39.1915 34.702C38.8511 34.4909 38.4681 34.3643 38.0425 34.3643C36.8511 34.3643 35.8723 35.3354 35.8723 36.5174C35.8723 37.6996 36.8511 38.6708 38.0425 38.6708C38.4681 38.7552 38.8511 38.6284 39.1915 38.4173ZM81.6171 40.9506L79.7447 38.2484C80.2978 37.9951 80.6808 37.6152 80.9788 37.1508C81.2767 36.6865 81.4468 36.0953 81.4468 35.462C81.4468 34.7866 81.2767 34.2376 80.9788 33.731C80.6808 33.2244 80.2554 32.8867 79.7021 32.591C79.149 32.3377 78.4681 32.2111 77.7447 32.2111H73.915V40.9506H76.2553V38.6708H77.3617L78.9361 40.9504L81.6171 40.9506ZM76.2553 34.1532H77.617C78.0852 34.1532 78.4681 34.2798 78.7234 34.4909C78.9787 34.702 79.1064 35.0399 79.1064 35.4196C79.1064 35.842 78.9787 36.1375 78.7234 36.3486C78.4681 36.5596 78.1277 36.6863 77.617 36.6863H76.2553V34.1532ZM86.9362 32.0422C89.4469 32.0422 91.532 34.0687 91.532 36.6019C91.532 39.135 89.4893 41.1617 86.9362 41.1617C84.4256 41.1617 82.3405 39.1351 82.3405 36.6019C82.3405 34.0686 84.383 32.0422 86.9362 32.0422ZM84.5957 36.5596C84.5957 37.8263 85.617 38.8396 86.8937 38.8396C88.1702 38.8396 89.1914 37.8265 89.1914 36.5596C89.1914 35.2928 88.1702 34.28 86.8937 34.28C85.6595 34.28 84.5957 35.2932 84.5957 36.5596ZM96.8086 32.0422C99.3192 32.0422 101.404 34.0687 101.404 36.6019C101.404 39.135 99.3618 41.1617 96.8086 41.1617C94.2979 41.1617 92.2128 39.1351 92.2128 36.6019C92.2128 34.0686 94.2979 32.0422 96.8086 32.0422ZM94.5106 36.5596C94.5106 37.8263 95.5319 38.8396 96.8086 38.8396C98.0851 38.8396 99.1064 37.8265 99.1064 36.5596C99.1064 35.2928 98.0851 34.28 96.8086 34.28C95.5319 34.28 94.5106 35.2932 94.5106 36.5596ZM107.149 37.7841L104.34 32.2111H102.383V40.9506H104.468V37.1086L106.553 40.9506H107.787L109.872 37.1086V40.9506H111.957V32.2111H110L107.149 37.7841Z" fill="#012635"/>
</g>
<defs>
<clipPath id="clip0_4010_90587">
<rect width="120" height="73" fill="white"/>
</clipPath>
</defs>
</svg>
