<svg width="120" height="73" viewBox="0 0 120 73" fill="none" xmlns="http://www.w3.org/2000/svg">
<g clip-path="url(#clip0_3899_86761)">
<path d="M60.7029 45.318H63.1176V38.4998C63.1176 36.8634 64.2905 35.568 65.8083 35.568C67.3262 35.568 68.6371 36.7953 68.6371 38.4998V45.318H71.2588V38.3634C71.2588 35.4316 68.844 33.1816 66.2223 33.1816C65.2564 33.1816 64.0145 33.5225 63.1176 34.7498V33.4544H60.7029V45.318Z" fill="#012635"/>
<path d="M85.4027 33.1816C81.884 33.1816 79.1242 35.9771 79.1242 39.4544C79.1242 42.9998 81.815 45.5907 85.4027 45.5907C88.9903 45.5907 91.7501 42.9998 91.7501 39.4544C91.7501 35.9771 89.0593 33.1816 85.4027 33.1816ZM85.4027 43.1362C83.4018 43.1362 81.815 41.4998 81.815 39.4544C81.815 37.2726 83.4708 35.7044 85.4027 35.7044C87.4725 35.7044 89.1283 37.2726 89.1283 39.4544C89.1283 41.4998 87.5415 43.1362 85.4027 43.1362Z" fill="#012635"/>
<path d="M78.7104 45.318V42.7953C76.9165 43.6817 75.1917 42.9999 75.1917 41.0226V35.8408H78.4344V33.4544H75.1917V30.3862H72.639V40.6135C72.639 44.8408 75.5367 46.2726 78.7104 45.318Z" fill="#012635"/>
<path d="M52.9756 33.1816C49.4569 33.1816 46.6972 35.9771 46.6972 39.4544C46.6972 42.9998 49.3879 45.5907 52.9756 45.5907C56.5632 45.5907 59.323 42.9998 59.323 39.4544C59.323 35.9771 56.6322 33.1816 52.9756 33.1816ZM52.9756 43.1362C50.9748 43.1362 49.3879 41.4998 49.3879 39.4544C49.3879 37.2726 50.9748 35.7044 52.9756 35.7044C55.0454 35.7044 56.7012 37.2726 56.7012 39.4544C56.7012 41.4998 55.0454 43.1362 52.9756 43.1362Z" fill="#012635"/>
<path d="M36.7622 28C31.7946 28 28 31.75 28 36.8637C28 41.7727 31.7946 45.6591 36.7622 45.6591C41.8677 45.6591 45.6623 41.7727 45.6623 36.9318C45.6623 31.75 41.8677 28 36.7622 28ZM36.7622 43C33.3125 43 30.7597 40.4091 30.7597 36.8637C30.7597 33.1818 33.3125 30.4545 36.7622 30.4545C40.2809 30.4545 42.8336 33.1818 42.8336 36.7955C42.8336 40.4091 40.2809 43 36.7622 43Z" fill="#012635"/>
<path d="M45.2484 45.9999C40.2808 45.4545 37.1071 42.9999 35.5203 38.3636L38.004 37.5454C39.2459 41.2272 41.5917 43.0681 45.5243 43.4772L45.2484 45.9999Z" fill="#012635"/>
</g>
<defs>
<clipPath id="clip0_3899_86761">
<rect width="63.75" height="18" fill="white" transform="translate(28 28)"/>
</clipPath>
</defs>
</svg>
