<svg width="120" height="73" viewBox="0 0 120 73" fill="none" xmlns="http://www.w3.org/2000/svg">
<g clip-path="url(#clip0_4010_90543)">
<path d="M14.7106 38.8333C13.3598 38.4238 12.768 38.164 12.768 37.3913C12.768 36.7 13.6888 36.4546 14.4774 36.4546C15.1672 36.4546 15.9087 36.6597 16.4123 36.9895C16.5316 37.0669 16.6782 37.0905 16.815 37.0525C16.9517 37.016 17.0672 36.9211 17.131 36.7942L17.3605 36.3353C17.4729 36.109 17.3992 35.8339 17.1872 35.6949C16.4617 35.2209 15.4323 34.9268 14.5009 34.9268C12.5439 34.9268 11.2281 35.9319 11.2281 37.4278C11.2281 39.3711 12.8698 39.8627 14.1872 40.2585C15.5668 40.6718 16.17 40.9377 16.1624 41.7589C16.1624 42.5832 15.1922 42.8764 14.2844 42.8764C13.4145 42.8764 12.4679 42.4138 11.8928 41.8827C11.7781 41.7771 11.63 41.7164 11.4765 41.7338C11.3223 41.7513 11.1848 41.8402 11.105 41.9739L10.8406 42.4206C10.7229 42.6174 10.7555 42.8688 10.9189 43.0299C11.772 43.8701 13.0567 44.3928 14.2722 44.3928C16.3235 44.3928 17.7016 43.3285 17.7016 41.7506C17.7175 39.7457 16.05 39.2397 14.7106 38.8333Z" fill="#012635"/>
<path d="M23.7484 35.2413C23.6671 35.0643 23.4901 34.9504 23.2949 34.9504H22.7524C22.5564 34.9504 22.3794 35.0643 22.2989 35.2429L18.4745 43.6749C18.4046 43.8299 18.4175 44.0084 18.5087 44.1512C18.6014 44.2948 18.7587 44.3799 18.9281 44.3799H19.4827C19.6787 44.3799 19.8564 44.2652 19.937 44.0866L20.8904 41.9792H25.1828L26.1476 44.0889C26.2289 44.2659 26.4059 44.3799 26.6004 44.3799H27.1557C27.3259 44.3799 27.4832 44.2933 27.5751 44.1505C27.667 44.0084 27.6792 43.8291 27.6085 43.6734L23.7484 35.2413ZM21.5582 40.475L23.0199 37.2348L24.4983 40.475H21.5582Z" fill="#012635"/>
<path d="M30.1108 34.9511H29.6048C29.3298 34.9511 29.1064 35.1745 29.1064 35.4495V43.8815C29.1064 44.1573 29.3298 44.3799 29.6048 44.3799H30.1108C30.3858 44.3799 30.6092 44.1573 30.6092 43.8815V35.4495C30.6092 35.1745 30.3858 34.9511 30.1108 34.9511Z" fill="#012635"/>
<path d="M40.6304 34.9511H40.1358C39.8592 34.9511 39.6367 35.1745 39.6367 35.4495V41.591L34.9037 35.154C34.8095 35.0256 34.6606 34.9511 34.5018 34.9511H33.9107C33.6349 34.9511 33.4124 35.1745 33.4124 35.4495V43.8815C33.4124 44.1573 33.6349 44.3799 33.9107 44.3799H34.4167C34.6925 44.3799 34.9158 44.1573 34.9158 43.8815V37.7431L39.6367 44.1778C39.7301 44.3047 39.8798 44.3799 40.0393 44.3799H40.6304C40.9054 44.3799 41.1287 44.1573 41.1287 43.8815V35.4495C41.1287 35.1745 40.9054 34.9511 40.6304 34.9511Z" fill="#012635"/>
<path d="M49.3275 34.9511H43.126C42.851 34.9511 42.6284 35.1745 42.6284 35.4495V35.9448C42.6284 36.2191 42.851 36.4424 43.126 36.4424H45.4758V43.8815C45.4758 44.1573 45.6992 44.3799 45.9742 44.3799H46.4794C46.7559 44.3799 46.9793 44.1573 46.9793 43.8815V36.4424H49.3275C49.6033 36.4424 49.8259 36.2191 49.8259 35.9448V35.4495C49.8259 35.1745 49.6033 34.9511 49.3275 34.9511Z" fill="#012635"/>
<path d="M53.0367 39.5476H50.3458C50.0708 39.5476 49.8474 39.7702 49.8474 40.046V40.4562C49.8474 40.732 50.0708 40.9546 50.3458 40.9546H53.0367C53.3117 40.9546 53.5343 40.732 53.5343 40.4562V40.046C53.5343 39.7702 53.3117 39.5476 53.0367 39.5476Z" fill="#012635"/>
<path d="M63.5137 39.2451H63.0549C63.0526 39.2451 63.0495 39.2458 63.0465 39.2458H61.5499C61.2741 39.2458 61.0508 39.4692 61.0508 39.7442V40.2509C61.0508 40.526 61.2741 40.7493 61.5499 40.7493H62.5573V42.2908C61.97 42.6934 61.2642 42.9122 60.5463 42.9122C58.6858 42.9122 57.1724 41.4536 57.1724 39.6599C57.1724 37.8723 58.6858 36.4182 60.5463 36.4182C61.4101 36.4182 62.2602 36.7365 62.8794 37.2919C62.9812 37.383 63.1164 37.4294 63.2524 37.418C63.3891 37.4074 63.5145 37.3405 63.6003 37.2341L63.9019 36.8604C64.0691 36.6514 64.044 36.3476 63.8419 36.1713C62.9364 35.3774 61.7649 34.9383 60.5463 34.9383C57.8569 34.9383 55.6682 37.0556 55.6682 39.6599C55.6682 42.2695 57.8455 44.3914 60.522 44.3914C61.7322 44.3914 62.9401 43.9477 63.8396 43.1735C63.949 43.0793 64.0129 42.9411 64.0129 42.7952V39.7435C64.0129 39.4692 63.7887 39.2451 63.5137 39.2451Z" fill="#012635"/>
<path d="M70.5827 34.9383C67.9002 34.9383 65.7175 37.0556 65.7175 39.6591C65.7175 42.2695 67.9002 44.3914 70.5827 44.3914C73.2652 44.3914 75.4486 42.2695 75.4486 39.6591C75.4486 37.0556 73.2652 34.9383 70.5827 34.9383ZM70.5827 42.9C68.7351 42.9 67.2324 41.446 67.2324 39.6591C67.2324 37.8784 68.7351 36.4304 70.5827 36.4304C72.4296 36.4304 73.9323 37.8784 73.9323 39.6591C73.9323 41.446 72.4296 42.9 70.5827 42.9Z" fill="#012635"/>
<path d="M83.4334 39.3985C83.9408 38.9616 84.2227 38.3182 84.2227 37.5357C84.2227 35.941 83.0239 34.9504 81.0942 34.9504H77.6436C77.3694 34.9504 77.146 35.1737 77.146 35.4487V43.8815C77.146 44.1565 77.3694 44.3799 77.6436 44.3799H81.1185C83.327 44.3799 84.6443 43.3459 84.6443 41.6145C84.6443 40.6345 84.2014 39.8551 83.4334 39.3985ZM81.082 38.7747H78.6487V36.4424H81.082C81.8281 36.4424 82.7192 36.6422 82.7192 37.5964C82.7192 38.3782 82.1684 38.7747 81.082 38.7747ZM78.6487 40.2661H81.082C81.8509 40.2661 83.1409 40.4332 83.1409 41.553C83.1409 42.6569 82.0218 42.8886 81.082 42.8886H78.6487V40.2661Z" fill="#012635"/>
<path d="M90.7635 35.2413C90.6822 35.0643 90.5052 34.9504 90.3099 34.9504H89.7675C89.5707 34.9504 89.3937 35.0643 89.3124 35.2429L85.4888 43.6749C85.4189 43.8299 85.4318 44.0084 85.5245 44.1512C85.6164 44.2948 85.7737 44.3799 85.9439 44.3799H86.4985C86.6945 44.3799 86.8722 44.2652 86.9528 44.0866L87.9062 41.9792H92.197L93.1619 44.0889C93.2432 44.2659 93.4209 44.3799 93.6154 44.3799H94.17C94.3394 44.3799 94.4982 44.2933 94.5894 44.1505C94.6813 44.0084 94.6942 43.8291 94.6236 43.6734L90.7635 35.2413ZM88.5732 40.475L90.0349 37.2348L91.5133 40.475H88.5732Z" fill="#012635"/>
<path d="M97.1255 34.9511H96.6188C96.3437 34.9511 96.1196 35.1745 96.1196 35.4495V43.8815C96.1196 44.1573 96.3437 44.3799 96.6188 44.3799H97.1255C97.4005 44.3799 97.6254 44.1573 97.6254 43.8815V35.4495C97.6254 35.1745 97.4005 34.9511 97.1255 34.9511Z" fill="#012635"/>
<path d="M107.645 34.9511H107.15C106.875 34.9511 106.652 35.1745 106.652 35.4495V41.591L101.919 35.154C101.825 35.0256 101.675 34.9511 101.517 34.9511H100.926C100.65 34.9511 100.427 35.1745 100.427 35.4495V43.8815C100.427 44.1573 100.65 44.3799 100.926 44.3799H101.432C101.707 44.3799 101.93 44.1573 101.93 43.8815V37.7431L106.652 44.1778C106.746 44.3047 106.895 44.3799 107.053 44.3799H107.645C107.92 44.3799 108.143 44.1573 108.143 43.8815V35.4495C108.143 35.1745 107.92 34.9511 107.645 34.9511Z" fill="#012635"/>
<path d="M65.5086 21.7203V30.0103H63.9824V20.58L65.5086 21.7203ZM95.097 29.9829H89.0931L89.0505 29.9411L83.7698 24.7181C83.5548 24.5054 83.2235 24.4401 82.9432 24.5571C82.6591 24.6756 82.4752 24.9506 82.4752 25.2583V30.0103H80.9064V18.2507C80.9064 18.0426 80.8191 17.8412 80.6679 17.6984L76.2806 13.555C76.1393 13.4212 75.9531 13.3476 75.7586 13.3476H73.5654C73.146 13.3476 72.8049 13.6887 72.8049 14.1073V30.0103H71.2483V4.47946C71.2483 4.1695 71.0629 3.89373 70.7765 3.77674C70.4954 3.66126 70.1581 3.73115 69.9469 3.94615L62.681 11.3191C62.5397 11.462 62.4622 11.6519 62.4622 11.8524V17.548L59.4872 15.3266C59.2167 15.1253 58.8202 15.1321 58.5573 15.3426L51.7929 20.7654C51.612 20.9105 51.5087 21.127 51.5087 21.3587V30.0103H49.9756V25.2416C49.9756 23.5672 48.8224 21.7872 46.6868 21.7872C44.5505 21.7872 43.3981 23.5755 43.3981 25.2583V30.0103L41.8475 30.0095V26.7747C41.8475 25.4634 40.945 24.0709 39.2721 24.0709C37.5992 24.0709 36.6967 25.4649 36.6967 26.7777V30.011L35.1522 30.0118L35.1514 29.8682C35.1491 29.2164 35.1469 28.3814 35.1469 28.0464C35.1469 26.9327 34.0954 25.9564 32.8966 25.9564C31.6978 25.9564 30.6463 26.9281 30.6463 28.0365V30.0103L23.8728 30.0095C23.4534 30.0095 23.1131 30.3506 23.1123 30.7692C23.1123 30.9728 23.1913 31.1635 23.3349 31.3071C23.4785 31.4507 23.6692 31.5297 23.872 31.5297L31.4061 31.5304C31.6089 31.5304 31.8003 31.4514 31.9432 31.3078C32.0868 31.1643 32.1665 30.9736 32.1665 30.7707V28.174C32.1665 27.8929 32.4727 27.4759 32.8966 27.4759C33.3144 27.4759 33.6274 27.8572 33.6274 28.1984C33.6274 28.3936 33.635 30.7753 33.635 30.7753C33.6373 31.1931 33.9777 31.5327 34.3948 31.5327L37.4571 31.5304C37.8757 31.5304 38.2168 31.1893 38.2168 30.7707V26.7777C38.2168 26.3667 38.4372 25.5903 39.2721 25.5903C40.107 25.5903 40.3281 26.3644 40.3281 26.7747V30.7684C40.3281 31.1878 40.6684 31.5289 41.087 31.5289L44.157 31.5304C44.3576 31.5304 44.5536 31.4491 44.6949 31.3078C44.8362 31.1665 44.9175 30.9705 44.9175 30.7707V25.2583C44.9175 24.5837 45.2875 23.3066 46.6868 23.3066C47.9844 23.3066 48.4554 24.4636 48.4554 25.2416V30.7707C48.4554 31.1893 48.7966 31.5304 49.2152 31.5304H52.2684C52.6878 31.5304 53.0281 31.1893 53.0281 30.7707V21.7233L53.0828 21.6793L59.0488 16.8962L62.4622 19.445V30.7707C62.4622 31.1893 62.8033 31.5304 63.2219 31.5304H66.2691C66.6877 31.5304 67.0288 31.1893 67.0288 30.7707V21.3389C67.0288 21.1011 66.9141 20.8732 66.7234 20.7304L63.9824 18.683V12.1639L64.0242 12.1214L69.7281 6.33315V30.7707C69.7281 31.1893 70.0692 31.5304 70.4878 31.5304H73.5654C73.984 31.5304 74.3251 31.1893 74.3251 30.7707V14.867H75.4563L75.4981 14.9065L79.3863 18.5782V30.7707C79.3863 31.1893 79.7274 31.5304 80.146 31.5304H83.2349C83.6543 31.5304 83.9954 31.1893 83.9954 30.7707V27.0785L88.246 31.2828C88.3896 31.4241 88.5795 31.5023 88.7801 31.5023H95.097C95.5164 31.5023 95.8575 31.1612 95.8575 30.7426C95.8575 30.3233 95.5164 29.9829 95.097 29.9829Z" fill="#012635"/>
</g>
<defs>
<clipPath id="clip0_4010_90543">
<rect width="120" height="73" fill="white"/>
</clipPath>
</defs>
</svg>
