<svg width="48" height="48" viewBox="0 0 48 48" fill="none" xmlns="http://www.w3.org/2000/svg">
<path d="M36.1873 1.03238C33.4803 0.407622 29.0305 0 24 0C18.9695 0 14.5197 0.407622 11.8127 1.03238C6.41533 2.16497 2.16497 6.41533 1.03238 11.8127C0.407622 14.5197 0 18.9695 0 24C0 29.0305 0.407622 33.4803 1.03238 36.1873C2.16497 41.5847 6.41533 45.835 11.8127 46.9676C14.5197 47.5924 18.9695 48 24 48C29.0305 48 33.4803 47.5924 36.1873 46.9676C41.5847 45.835 45.835 41.5847 46.9676 36.1873C47.5924 33.4803 48 29.0305 48 24C48 18.9695 47.5924 14.5197 46.9676 11.8127C45.835 6.41533 41.5847 2.16497 36.1873 1.03238Z" fill="#0343F6"/>
<path d="M31.125 22.5046C30.7846 22.2128 16.9244 12.535 16.2922 12.1459L16.0977 12V14.383C16.0977 15.1611 16.4867 15.4043 16.973 15.7933L17.0703 15.8419C17.7512 16.3283 27.6235 23.1854 28.9366 24.1094C27.6235 25.0334 17.6053 31.9879 16.973 32.3769C16.1949 32.8632 16.1463 33.2037 16.1463 33.8845V36.1702C16.1463 36.1702 30.8819 25.9088 31.1737 25.6657C31.8545 25.1793 32.0004 24.5471 32.0004 24.1581V23.8663C32.0004 23.38 31.7086 22.8936 31.125 22.5046Z" fill="white"/>
<path d="M22.4681 25.1792C22.8571 25.1792 23.2462 25.0333 23.6353 24.7415C24.1216 24.4011 24.5593 24.1093 24.5593 24.1093L24.7052 24.012L24.5593 23.9148C24.5107 23.8661 18.0425 19.392 17.3617 18.9543C17.0699 18.7111 16.6808 18.6625 16.4377 18.8084C16.1945 18.9543 16 19.1974 16 19.5865V21.0941L16.0486 21.1427C16.0973 21.1914 20.5228 24.2552 21.3982 24.8388C21.7872 25.0819 22.1277 25.1792 22.4681 25.1792Z" fill="white"/>
</svg>
