<svg width="48" height="48" viewBox="0 0 48 48" fill="none" xmlns="http://www.w3.org/2000/svg">
<path d="M36.1873 1.03238C33.4803 0.407622 29.0305 0 24 0C18.9695 0 14.5197 0.407622 11.8127 1.03238C6.41533 2.16497 2.16497 6.41533 1.03238 11.8127C0.407622 14.5197 0 18.9695 0 24C0 29.0305 0.407622 33.4803 1.03238 36.1873C2.16497 41.5847 6.41533 45.835 11.8127 46.9676C14.5197 47.5924 18.9695 48 24 48C29.0305 48 33.4803 47.5924 36.1873 46.9676C41.5847 45.835 45.835 41.5847 46.9676 36.1873C47.5924 33.4803 48 29.0305 48 24C48 18.9695 47.5924 14.5197 46.9676 11.8127C45.835 6.41533 41.5847 2.16497 36.1873 1.03238Z" fill="white"/>
<g clip-path="url(#clip0_760_11432)">
<path fill-rule="evenodd" clip-rule="evenodd" d="M14.3242 14.0037C14.3242 11.3591 16.4681 9.21521 19.1128 9.21521H23.533H34.4683V16.0297C34.4683 17.352 33.3964 18.424 32.0741 18.424H25.7977C24.554 18.4437 23.5499 19.4495 23.533 20.6938V35.5982C23.533 36.9206 22.461 37.9925 21.1387 37.9925H14.3242V18.424V14.0037Z" fill="#001B38"/>
<path d="M19.6756 20.7837C19.6756 24.2166 22.4586 26.9996 25.8915 26.9996C29.3245 26.9996 32.1074 24.2166 32.1074 20.7837C32.1074 17.3507 29.3245 14.5677 25.8915 14.5677C22.4586 14.5677 19.6756 17.3507 19.6756 20.7837Z" fill="url(#paint0_linear_760_11432)"/>
<path opacity="0.5" d="M19.6756 20.7837C19.6756 24.2166 22.4586 26.9996 25.8915 26.9996C29.3245 26.9996 32.1074 24.2166 32.1074 20.7837C32.1074 17.3507 29.3245 14.5677 25.8915 14.5677C22.4586 14.5677 19.6756 17.3507 19.6756 20.7837Z" fill="url(#paint1_linear_760_11432)"/>
</g>
<defs>
<linearGradient id="paint0_linear_760_11432" x1="21.5139" y1="16.1241" x2="30.8614" y2="25.5361" gradientUnits="userSpaceOnUse">
<stop stop-color="#FF0057" stop-opacity="0.16"/>
<stop offset="0.861354" stop-color="#FF0057"/>
</linearGradient>
<linearGradient id="paint1_linear_760_11432" x1="21.5139" y1="16.1241" x2="30.8614" y2="25.5361" gradientUnits="userSpaceOnUse">
<stop stop-color="#FF0057" stop-opacity="0.16"/>
<stop offset="0.861354" stop-color="#FF0057"/>
</linearGradient>
<clipPath id="clip0_760_11432">
<rect width="20.7833" height="29" fill="white" transform="translate(14 9)"/>
</clipPath>
</defs>
</svg>
