<svg width="48" height="48" viewBox="0 0 48 48" fill="none" xmlns="http://www.w3.org/2000/svg">
<path d="M36.1873 1.03238C33.4803 0.407622 29.0305 0 24 0C18.9695 0 14.5197 0.407622 11.8127 1.03238C6.41533 2.16497 2.16497 6.41533 1.03238 11.8127C0.407622 14.5197 0 18.9695 0 24C0 29.0305 0.407622 33.4803 1.03238 36.1873C2.16497 41.5847 6.41533 45.835 11.8127 46.9676C14.5197 47.5924 18.9695 48 24 48C29.0305 48 33.4803 47.5924 36.1873 46.9676C41.5847 45.835 45.835 41.5847 46.9676 36.1873C47.5924 33.4803 48 29.0305 48 24C48 18.9695 47.5924 14.5197 46.9676 11.8127C45.835 6.41533 41.5847 2.16497 36.1873 1.03238Z" fill="#00204F"/>
<path d="M15.1523 18.7712L20.7785 22.2391C19.1422 27.1014 17.5092 31.9525 15.8795 36.7924L15.9213 36.8177L32.787 19.5149C32.7937 19.663 32.8008 19.7466 32.8008 19.8298C32.8008 22.6187 32.8025 25.4076 32.8058 28.1966C32.8058 28.3892 32.7414 28.4861 32.5751 28.5758C26.8714 31.6613 21.1687 34.7493 15.4672 37.8399C15.3731 37.8911 15.2762 37.9373 15.1523 38V18.7712Z" fill="white"/>
<path d="M32.2362 18.8411L29.326 20.9212C28.4238 21.5664 27.5183 22.2076 26.6216 22.8599C26.4757 22.9662 26.364 22.9794 26.2027 22.9007C22.5474 21.1238 18.8891 19.3503 15.2279 17.58C15.1002 17.5184 14.9995 17.4699 15 17.2872C15.007 14.7283 15.0092 12.1693 15.0066 9.61009C15.0107 9.5731 15.0168 9.53635 15.0248 9.5L32.2362 18.8411Z" fill="white"/>
</svg>
