<svg width="48" height="48" viewBox="0 0 48 48" fill="none" xmlns="http://www.w3.org/2000/svg">
<g clip-path="url(#clip0_760_11446)">
<path d="M36.1873 1.03238C33.4803 0.407622 29.0305 0 24 0C18.9695 0 14.5197 0.407622 11.8127 1.03238C6.41533 2.16497 2.16497 6.41533 1.03238 11.8127C0.407622 14.5197 0 18.9695 0 24C0 29.0305 0.407622 33.4803 1.03238 36.1873C2.16497 41.5847 6.41533 45.835 11.8127 46.9676C14.5197 47.5924 18.9695 48 24 48C29.0305 48 33.4803 47.5924 36.1873 46.9676C41.5847 45.835 45.835 41.5847 46.9676 36.1873C47.5924 33.4803 48 29.0305 48 24C48 18.9695 47.5924 14.5197 46.9676 11.8127C45.835 6.41533 41.5847 2.16497 36.1873 1.03238Z" fill="white"/>
<path d="M17.5922 15.4303C17.5922 13.5647 19.3861 12.0579 21.6822 12.0579C24.6241 12.0579 26.418 13.4212 27.4225 20.5248H28.0683L29.0011 10.838C22.328 8.54193 14.1481 10.9816 14.0046 17.9416C14.0046 25.4758 25.9874 25.4758 25.9874 32.3641C25.9874 34.3732 24.1936 35.7366 22.1845 35.7366C16.8747 35.7366 15.6549 31.2879 15.3679 26.6238H14.7221L13 35.3778C13 35.3778 16.9464 37.6739 21.1799 37.6739C26.2745 37.6021 29.6469 33.871 29.7904 29.9245C29.7904 22.3903 17.5922 20.8119 17.5922 15.4303Z" fill="#06492E"/>
<path d="M30 35.4987C30 34.148 31.0667 33 32.4663 33C33.9333 33 35 34.148 35 35.4987C35 36.8493 33.9333 37.9973 32.5337 37.9973C31.0002 38.0648 30 36.8493 30 35.4987Z" fill="#B4D625"/>
</g>
<defs>
<clipPath id="clip0_760_11446">
<rect width="48" height="48" fill="white"/>
</clipPath>
</defs>
</svg>
