<svg width="731" height="731" viewBox="0 0 731 731" fill="none" xmlns="http://www.w3.org/2000/svg">
<rect width="731" height="731" fill="#162351"/>
<mask id="mask0_3661_77607" style="mask-type:luminance" maskUnits="userSpaceOnUse" x="148" y="193" width="81" height="235">
<path d="M148 193.212H228.761V427.757H148V193.212Z" fill="#8089FF"/>
</mask>
<g mask="url(#mask0_3661_77607)">
<path fill-rule="evenodd" clip-rule="evenodd" d="M148.099 332.62L148.175 381.231L228.761 427.757V338.875L228.725 315.348C228.725 315.158 228.76 314.975 228.761 314.785V193.212L174.064 224.905C157.908 234.267 147.972 251.535 148 270.21L148.099 332.62Z" fill="#8089FF"/>
</g>
<path fill-rule="evenodd" clip-rule="evenodd" d="M503.449 314.8C503.452 314.99 503.486 315.172 503.486 315.362L503.449 338.889V537.99L557.704 506.777C573.892 497.464 583.882 480.227 583.909 461.551L583.995 352.321L503.449 305.817V314.8Z" fill="#FFD41D"/>
<mask id="mask1_3661_77607" style="mask-type:luminance" maskUnits="userSpaceOnUse" x="285" y="456" width="199" height="154">
<path d="M285.672 456.281H483.98V609.197H285.672V456.281Z" fill="#19D9B4"/>
</mask>
<g mask="url(#mask1_3661_77607)">
<path fill-rule="evenodd" clip-rule="evenodd" d="M478.491 459.491L458.096 471.224L285.672 570.773L339.83 602.153C355.989 611.515 375.913 611.548 392.099 602.234L483.98 549.379V456.281L478.958 459.178C478.796 459.275 478.655 459.397 478.491 459.491Z" fill="#19D9B4"/>
</g>
<path fill-rule="evenodd" clip-rule="evenodd" d="M274.149 471.227L253.756 459.494C253.59 459.4 253.45 459.278 253.288 459.181L148 398.395L148.102 461.61C148.131 480.282 158.117 497.521 174.304 506.833L269.014 561.317L349.603 514.79L274.149 471.227Z" fill="#54CEFF"/>
<path fill-rule="evenodd" clip-rule="evenodd" d="M253.517 271.706L273.912 259.973L446.336 160.424L392.177 129.044C376.018 119.682 356.097 119.649 339.909 128.962L248.242 181.695V274.793L253.049 272.018C253.212 271.923 253.354 271.802 253.517 271.706Z" fill="#FF7483"/>
<path fill-rule="evenodd" clip-rule="evenodd" d="M457.85 259.964L478.242 271.697C478.407 271.791 478.55 271.912 478.712 272.009L583.998 332.796L583.898 269.582C583.868 250.908 573.883 233.67 557.694 224.357L463.508 170.175L382.918 216.703L457.85 259.964Z" fill="#FF8765"/>
</svg>
